<svg xmlns="http://www.w3.org/2000/svg" viewBox="0 0 200 100"><style>.st2{fill:#666}</style><g id="ALL"><g id="BOKU"><path class="st2" d="M49.6 42.3V31c0-.3.1-.4.4-.4h7.6c.3 0 .4.1.4.4v7.9c0 .4.1.4.4.2 4.9-1.9 9.7-1.9 14.2 1.2 3.4 2.3 5.6 5.4 6.3 9.5C80.6 59 74.4 65.6 68.1 67c-9.4 2.2-16.1-3.9-18-10.1-.4-1.3-.6-2.7-.6-4 .1-3.6.1-7.1.1-10.6zm21.1 10.3c0-.4 0-.8-.1-1.2-.7-3.7-4.5-6.4-8.6-4.7-2.7 1.2-4.1 4.1-3.6 7.2.5 2.9 3.4 5.9 7.4 5 2.8-.6 4.9-3.3 4.9-6.3zM122.4 52.2c2.1-3 4.2-5.8 6.3-8.7 1.1-1.6 2.3-3.1 3.4-4.7.1-.1.2-.3.4-.3h9c0 .2-.1.3-.2.4-2.8 3.8-5.7 7.6-8.6 11.4-.2.3-.2.4 0 .7 3.9 5.2 7.7 10.3 11.6 15.5 0 .1.1.1.1.2-.1.1-.2.1-.4.1h-8.9c-.3 0-.4-.1-.6-.3-2.2-3-4.4-6-6.6-9.1-.1-.1-.2-.2-.3-.4-1 1.4-2 2.7-3 4-1.4 1.8-2.7 3.6-4.1 5.4-.1.2-.3.3-.5.3h-5.9c-.3 0-.3-.1-.3-.3V30.8c0-.3.1-.3.3-.3h7.7c.3 0 .4.1.4.4v20.7c.2.2.2.4.2.6zM111.1 52.7c.1 8.2-6.9 15-15.3 14.8-7.7-.2-14.5-6.8-14.4-15.1.1-7.9 6.9-14.8 15.6-14.5 7.3.1 14.2 6.5 14.1 14.8zm-14.7-6.5c-.7 0-1.3.1-1.9.2-3.9 1.2-5.7 6.1-3.5 9.7 1.9 3.1 6 4 8.8 1.9 2.1-1.6 2.9-3.7 2.6-6.3-.3-2.9-2.8-5.6-6-5.5zM173.2 46.4v6.7c0 3.7-1.4 6.9-3.8 9.6-2.1 2.2-4.5 3.8-7.5 4.4-9.3 2-15.8-4.1-17.6-10.1-.4-1.4-.6-2.8-.6-4.2V39c0-.3 0-.4.4-.4h7.7c.3 0 .4.1.4.4v13.9c0 4.6 5.3 7.8 9.2 5.6 2.2-1.3 3.5-3.3 3.5-5.9V39.1c0-.3.1-.4.4-.4h7.5c.4 0 .4.1.4.4v7.3z"/><path d="M39.3 52.3c0 3.1-1.6 5.5-4 6.4-4.3 1.6-7.8-1.6-8.3-5-.4-2.5.4-4.7 2.4-6.3 3.1-2.5 8.3-1.4 9.7 3.3.1.6.2 1.3.2 1.6z" fill="#8b8b8b"/></g></g></svg>