<svg id="Layer_1" data-name="Layer 1" xmlns="http://www.w3.org/2000/svg" viewBox="0 0 1467 338.341"><defs><style>.cls-1{fill:#a6a6a6}</style></defs><path class="cls-1" d="M350.7 243.8c-18-57.8-82.8-96.7-147.8-80.6-55.4 13.8-96.7 65.6-93.8 126 2.9 60.5 48.4 111.8 113.1 118-3.4 4.3-6.6 8.4-9.8 12.5-4.8 6.1-9.7 12.1-14.3 18.3-1.6 2.2-3.1 2.6-5.6 1.9-58.7-16.6-97.8-53.7-114-112.6-25.3-92.1 34.8-186.2 129-203.6a158.221 158.221 0 0 1 168.8 82c1.4 2.7 1.2 4.3-.7 6.6-8.3 10.3-16.4 20.7-24.9 31.5zM1208.5 352.9v24.7h-112.1v-156h109.4v24.7h-83.2v41.3h74.6v23.6h-74.5V353c28.5-.1 56.9-.1 85.8-.1zM577.7 352.9v24.7H465.6v-156H575v24.6h-83.1v41.4h74.5v23.5h-74.6v41.8zM921.9 413.4c3.7-6.7 7.4-13.3 11.1-20 2.6 1.7 4.8 3.4 7.3 4.7 12.4 6.4 26.4-1.1 27.9-14.9a13.035 13.035 0 0 0-1.1-5.8q-20.85-52.95-41.7-105.8c-1.6-4.1-3.3-8.3-5.2-13 8.9 0 17.3-.1 25.7.1.9 0 1.9 2 2.4 3.2 11.3 27.6 22.4 55.2 33.6 82.8.1.2.2.4.7 1.5 12-29.5 23.7-58.5 35.4-87.5h26.8c-1 2.6-2 5-2.9 7.4q-27 66.3-54 132.7c-11.5 28.2-43.3 35.4-66 14.6zM1270.6 221.4h103.6v24.4h-77.1v43h68.7v24.3h-68.9v64.4h-26.3zM709.7 377.6v-15a18.73 18.73 0 0 0-2.4 2.1c-14.9 15.3-40.4 19.7-59.6 10.2-21.1-10.5-23.3-31.1-18.9-45.6 2.4-7.7 7.8-12.9 14.8-16.6 9.7-5.1 20.1-6.4 30.9-6.5 10.9-.1 21.7 0 32.5 0 2.9-15.6-5.5-26.6-21-27.9-12.6-1.1-23.9 2.5-34.6 8.8-1.5.9-3 1.8-4.8 2.9-3.6-5.1-7.2-10.1-10.8-15.2.2-.4.3-.8.6-1 19.9-15.1 42.1-20.4 66.4-14.2 18.8 4.8 29.2 18.3 29.5 38 .4 26.6.1 53.2.1 80.1-7.5-.1-14.9-.1-22.7-.1zm-2.6-53.9a11.019 11.019 0 0 0-1.8-.2c-9.6 0-19.2-.2-28.8.1a51.736 51.736 0 0 0-12.9 2c-7.4 2.1-11.2 7.1-11.5 14-.3 7.5 2.9 13.2 10 16 12.5 4.8 24.7 4.2 36-3.7a20.231 20.231 0 0 0 9-14.9c.3-4.4 0-8.8 0-13.3zM1418.7 245.7v-24.2h121v24.1h-47.2v132.1h-26.4V245.8c-16-.1-31.6-.1-47.4-.1zM227 458.7v-28.2c34.8 2.5 66.2-6.4 93.7-27.7 27.4-21.3 43.8-49.4 50-83.6h28.5c-11.4 89.1-94 147.3-172.2 139.5zM796.5 342.3c9.8 7.1 19.7 12.9 31.3 14.7a55.516 55.516 0 0 0 14.1.4 17.54 17.54 0 0 0 8.4-3.6c6.6-5 6.7-13.3-.4-17.4-6.9-4-14.8-6.5-22.2-9.6-7.2-3-14.9-5.3-21.6-9.3-22.2-13.1-16.1-39-3.1-49.5 7.9-6.3 16.9-9.4 26.8-10.6 15.5-2 35.2 2.9 46.8 12-3 6-6.1 12-9.2 18.3-10.2-6.5-21-10.1-32.8-9.4a42.017 42.017 0 0 0-12.6 2.9c-4.4 1.7-6.4 5.5-6.2 10.2.1 4.4 2.8 7.2 6.8 8.5 5.7 1.9 11.5 3.2 17.1 5.3 8.2 3 16.4 6 24.2 9.7 22.3 10.7 19 41.6 5.4 53.3-9.3 8-20.1 11.4-32.1 11.4a85.309 85.309 0 0 1-51.1-16.6c-.5-.4-.9-.8-1.5-1.3 4-6.5 7.9-12.8 11.9-19.4z" transform="translate(-72.7 -121.058)"/><path class="cls-1" d="M242.7 202.2c6.3-8 12.1-15.6 18.2-23 .6-.7 2.5-.8 3.6-.5 43.2 12.4 70.2 40.4 80.7 84 3.8 15.8 3.3 31.7.1 47.6-.5 2.4-1.3 3.3-3.9 3.3-7.6-.2-15.2-.1-23.3-.1 7-26.4 3.6-51-11.5-73.3-15-22.3-36.5-34.9-63.9-38zM227 400.6v-25.7c4.9 0 9.9.4 14.8-.1 34.5-3.4 58.6-21.4 72.9-52.7 1.1-2.5 2.4-3.2 5-3.2 7.4.2 14.7.1 22.1.1a1.854 1.854 0 0 1 .7.2c-11.5 44.3-58.1 85.2-115.5 81.4z" transform="translate(-72.7 -121.058)"/><path class="cls-1" d="M197.7 236.8a55.735 55.735 0 0 1 23-11.3c2.7 1 2.3 2.5 1 4.6-4.2 6.3-7.1 13.2-7.7 20.8-1.2 16 3.8 29.8 16 40.5 11.2 9.8 24.4 13.3 38.9 10.9 13.4-2.2 23.5-9.6 31.4-20.4.8-1.2 2.8-1.6 4.2-2.3a57.369 57.369 0 0 1-1.2 27c-1.4.3-3.1.1-4.2.8-14.1 9.5-29.2 14.3-46.5 12-12.6-1.7-23.9-6.5-33.2-14.8-18.9-16.8-25.8-38-21-62.9.3-1.6-.4-3.3-.7-4.9zM153 316.3c12.1 32 34.7 51.3 68.3 58v25.9a103.5 103.5 0 0 1-33.9-9.3 110.919 110.919 0 0 1-51.2-48.3c-1.3-2.3-1.1-3.9.6-5.9 5.4-6.5 10.7-13.4 16.2-20.4z" transform="translate(-72.7 -121.058)"/><path class="cls-1" d="M197.7 236.8c.2 1.6 1 3.3.7 4.9-4.8 24.9 2.1 46.1 21 62.9 9.3 8.3 20.6 13 33.2 14.8 17.2 2.3 32.4-2.5 46.5-12 1.1-.7 2.8-.6 4.2-.8l-.3 1.5a8.8 8.8 0 0 0-.5 1.5 56.146 56.146 0 0 1-12.8 23.9c.2-1.3.4-2.6.8-5-25.5 9.5-49.6 7.5-72-6.9-22.7-14.6-33.8-36.3-36.2-63.1-1.4.3-2.5.5-3.5.7a58.566 58.566 0 0 1 18.9-22.4z" transform="translate(-72.7 -121.058)"/><path class="cls-1" d="M304.6 279.5c-1.4.7-3.4 1.1-4.2 2.3-7.9 10.9-18 18.2-31.4 20.4-14.6 2.4-27.7-1.1-38.9-10.9-12.2-10.7-17.2-24.4-16-40.5.6-7.6 3.6-14.5 7.7-20.8 1.3-2 1.7-3.6-1-4.6 5.7-1.6 11.4-3.1 17.5-1.8 2.1.4 4.3-.1 6.5-.2 1.4 2.5-.1 3.7-2 5-9.8 6.2-14.5 15.7-15 26.9a31.492 31.492 0 0 0 7.2 21.1 32.924 32.924 0 0 0 48 4.3 32.179 32.179 0 0 0 10.7-20c.3-1.8.4-4.3 3.5-2.9a61.415 61.415 0 0 1 7.4 21.7z" transform="translate(-72.7 -121.058)"/><path class="cls-1" d="M178.8 259.3c1.1-.2 2.1-.4 3.5-.7 2.4 26.7 13.5 48.5 36.2 63.1 22.4 14.4 46.6 16.3 72 6.9-.4 2.3-.6 3.7-.8 5-6.8 9-16 14.6-26.2 18.9.8-1.3 1.5-2.5 2.6-4.3-43.9.1-74-20.2-91.6-59.4-1.2 1.4-2.2 2.5-3.2 3.6a57.636 57.636 0 0 1 7.5-33.1zM297 257.8c-3.1-1.4-3.2 1.1-3.5 2.9a32.179 32.179 0 0 1-10.7 20 32.924 32.924 0 0 1-48-4.3 31.492 31.492 0 0 1-7.2-21.1c.5-11.1 5.2-20.6 15-26.9 1.9-1.2 3.4-2.5 2-5 23.4 2.5 40.8 14.1 52.4 34.4zM260.6 275a19.272 19.272 0 0 0 19.4-19c0-10.2-8.8-19.3-19-19.2a19.1 19.1 0 0 0-.4 38.2z" transform="translate(-72.7 -121.058)"/><path class="cls-1" d="M171.2 292.3c1-1.1 2-2.2 3.2-3.6 17.7 39.2 47.8 59.5 91.6 59.4-1 1.7-1.8 3-2.6 4.3-13.5 6.4-27.6 6.8-41.8 3.3-26.6-6.6-45.9-28.4-49.9-55.7-.2-2.6-.3-5.2-.5-7.7zM302.6 309.5a8.8 8.8 0 0 0 .5-1.5 8.8 8.8 0 0 0-.5 1.5zM260.6 275c-10.2 0-18.9-8.9-18.8-19.3a19.275 19.275 0 0 1 19.2-18.9c10.2-.1 19 9 19 19.2a19.272 19.272 0 0 1-19.4 19z" transform="translate(-72.7 -121.058)"/></svg>