<svg xmlns="http://www.w3.org/2000/svg" viewBox="0 0 91.741 17.67" height="66.783" width="346.737"><path d="M-53.583-95.411H70.582v69.264H-53.583z"/><path d="M2.166.12L.134 17.513h9.84l.473-4.117H5.11l.322-2.757h4.985l.472-4.117H5.913l.266-2.285h5.215L11.9.12H6.166zm34.867.027a8.238 9.734 58.61 0 0-10.63 8.67 8.238 9.734 58.61 0 0 7.87 8.669 8.238 9.734 58.61 0 0 10.63-8.67 8.238 9.734 58.61 0 0-7.87-8.67zM21.658.269c-3.658.045-8.46 1.744-9.626 9.113-1.409 8.9 8.276 8.896 11.979 7.46l.317-5.238c-1.757 1.325-8.552 2.453-7.323-2.693 1.583-6.632 8.173-2.552 8.173-2.552l.85-5.15c.1-.229-1.868-.971-4.37-.94zM59.999 3.24h-.529l-5.314 12.872h2.985l1.02-2.472h4.163l.553 2.471h2.983l-2.877-12.87zm7.442 0l-1.425 12.871h2.983l.83-7.487c.62.997 4.701 7.488 4.701 7.488h2.984l1.425-12.871h-2.984l-.763 6.89c-1.502-2.14-4.767-6.89-4.767-6.89zm18.295 0a6.145 6.869 51.472 0 0-7.272 6.436 6.145 6.869 51.472 0 0 5.846 6.436 6.145 6.869 51.472 0 0 2.903-.64l.97 1.328 2.787-1.252-1.422-1.702a6.145 6.869 51.472 0 0 2.034-4.17 6.145 6.869 51.472 0 0-5.846-6.436zm-39.025 0l-1.425 12.872h4.768s3.667.228 4.37-3.28c.413-2.063-1.512-3.166-1.512-3.166s2.085-1.026 1.583-3.85c-.452-2.543-4.8-2.575-4.8-2.575h-1.492zM36.053 4.987a3.653 4.316 58.61 0 1 3.49 3.844 3.653 4.316 58.61 0 1-4.713 3.844 3.653 4.316 58.61 0 1-3.49-3.844 3.653 4.316 58.61 0 1 4.713-3.844zm13.746.744s1.766.317 1.595 1.646C51.2 8.885 49.44 8.97 49.44 8.97zm35.595.905a2.85 3.185 51.472 0 1 2.711 2.985 2.85 3.185 51.472 0 1-.7 1.66l-.499-.597h-3.189l1.384 1.896a2.85 3.185 51.472 0 1-.368.025 2.85 3.185 51.472 0 1-2.71-2.984 2.85 3.185 51.472 0 1 3.371-2.985zM60.862 7.1l.946 4.232h-2.693zM49.226 10.9s2.507.208 2.302 1.604c-.214 1.457-2.61 1.183-2.61 1.183z" fill="#ccc"/><path d="M43.2 12.841l-15.491 1.583c1.448 1.942 3.849 3.061 6.565 3.062 3.438-.002 6.876-1.79 8.926-4.645zM24.135 14.79l-10.168 1.037c2.784 2.268 7.656 1.942 10.044 1.015zm-14.012 1.428c-4.998.508-8 .81-9.955 1.005l-.034.291h9.84z" fill="#585858"/><path d="M33.875 3.122c-.448-.002-.886 0-1.316.004a54.679 54.679 0 0 0-3.09.115 8.238 9.734 58.61 0 0-3.066 5.575 8.238 9.734 58.61 0 0 1.306 5.608l15.49-1.583a8.238 9.734 58.61 0 0 1.704-4.025 8.238 9.734 58.61 0 0-1.278-5.572c-3.915-.007-7.018-.112-9.75-.122zm-8.257.575c-3.673.647-7.654 1.99-13.386 4.644a17.24 17.24 0 0 0-.2 1.041c-.5 3.161.402 5.195 1.935 6.444 3.948-.402 6.102-.621 10.168-1.037l.193-3.185c-1.757 1.325-8.552 2.453-7.323-2.693 1.583-6.632 8.173-2.552 8.173-2.552zm10.435 1.289a3.653 4.316 58.61 0 1 3.49 3.844 3.653 4.316 58.61 0 1-4.713 3.844 3.653 4.316 58.61 0 1-3.49-3.844 3.653 4.316 58.61 0 1 4.713-3.844zM10.592 9.11c-.981.47-2.025.984-3.112 1.528h2.937zm-5.28 2.548c-1.578.565-3.162.585-4.565.606l-.579 4.958c1.99-.198 5.058-.508 9.955-1.006l.324-2.82H5.11z" fill="#ababab"/></svg>