<svg xmlns="http://www.w3.org/2000/svg" viewBox="0 0 200 100"><style>.st2{fill:#666}.st14{fill:#a6a6a6}</style><g id="ALL"><g id="ECOPAYZ"><path class="st14" d="M151.2 51.9c.6-1.3 1.2-2.3 1.7-3.5.9-2.6 2-5 3.1-7.4 1-2.3 3.6-2.9 5.4-1.3.5.5.8.6 1.4 0 .5-.5 1.1-.6 1.8-.6 4.7 0 9.4-.1 14-.2.3 0 .5 0 .8.1 2.1.4 2.7 2 1.4 3.7-1.7 2.3-3.5 4.6-5.3 6.9l-4.2 5.4c-.2.2-.4.4-.2.6.2.3.5.2.7.2h7.5c1.9 0 2.9 1.1 2.9 2.8 0 1.4-1 2.5-2.5 2.5-5.3.1-10.6.1-15.8 0-2 0-2.9-1.8-1.8-3.5 1.3-1.8 2.7-3.5 4.1-5.4 1.9-2.5 3.8-4.9 5.6-7.4.5-.7-.2-.5-.5-.5H165c-.9 0-1.7-.2-2.3-.9-.5-.5-.7-.2-.8.2l-4.5 10.5c-2 4.5-3.8 9-5.8 13.4-.9 2-2 2.7-4 2.4-2-.3-3-2-2.3-3.8.8-2 1.7-4.1 2.6-6 .2-.5.2-1 0-1.6-2.2-5.1-4.5-10.3-6.6-15.3-.8-2-.4-3.5 1.4-4.2 1.6-.8 3.6-.1 4.4 1.7.8 1.7 1.4 3.5 2.2 5.4.3 1.8 1.1 3.7 1.9 5.8zM102.2 31.6c2.8 0 5.3-.1 7.6.5 6.3 1.7 9.4 8.6 6.3 14.1-2 3.5-5.4 5-9.4 5.2-1.5.1-3 .1-4.5 0-.8 0-1 .3-1 1.1.1 1.9 0 3.8 0 5.7 0 2-1.3 3.2-3.2 3.3-1.8.2-3.3-1.1-3.6-2.9-.1-.4-.1-.8-.1-1.1v-22c0-2.6.9-3.5 3.5-3.8 1.6-.2 3.2 0 4.4-.1zm1.9 5.6c-.8 0-1.4 0-2.2-.1-.6 0-.7.2-.7.8v7.2c0 .5.2.8.8.8 1.4 0 2.7.1 4.1 0 2.4-.1 4.1-1.8 4.1-4.1.1-2.6-1.4-4.3-4-4.5-.7-.1-1.4-.1-2.1-.1z"/><path class="st2" d="M39.6 52.2h-6c-.8 0-1 .2-.7 1 .6 1.5 1.9 2 3.3 2.3 2.1.5 4.1.1 6-.8.8-.3 1.4-.6 2.2-.8 1.4-.5 2.6-.1 3.5 1.1.8 1.1.6 2.5-.4 3.6-.9 1.1-2 1.6-3.3 2-3.8 1.3-7.8 1.8-11.6.4-4.1-1.5-6.6-4.5-7.3-8.8-.8-4.8.8-8.8 4.8-11.7 6.5-4.8 15.5-2 18.1 5.2.5 1.4.6 2.7.5 4.1-.1 1.2-.6 1.8-1.8 2.1-.6.2-1.1.2-1.7.2-1.9.1-3.8.1-5.6.1zm-2.5-4.6h3.8c.5 0 .8-.2.6-.7-.4-1.6-2.5-3.2-4.3-3.2-1.8 0-3.9 1.4-4.4 3-.2.5-.1.8.6.8 1.2.1 2.5.1 3.7.1z"/><path class="st14" d="M140 50.2v7.5c0 .6-.1 1.3-.2 1.8-.4 1.1-1.1 1.8-2.3 1.9-1.4.1-2.6-.2-3.3-1.5-.2-.5-.4-.9-1-.3-3.4 3.2-9.6 2.4-12.7-.8-3.1-3.1-3.9-6.9-3.2-11 .7-4.3 3.1-7.3 7.2-8.8 3.1-1.1 6.1-.8 8.7 1.5.5.5.7.2 1-.2.8-1.4 2.2-1.6 3.6-1.4 1.1.1 1.7.8 2 1.7.2.7.2 1.5.2 2.3v7.3zm-16.5-.5c-.2 1.2.1 2.3.5 3.2.6 1.6 1.6 2.9 3.4 3.2 1.7.2 3.4.1 4.6-1.4 1.7-2.1 2-5.4.7-7.8-.8-1.6-2-2.6-4-2.6s-3.4.8-4.3 2.6c-.6.8-.9 1.8-.9 2.8z"/><path class="st2" d="M80.4 61.8c-6.9 0-11.8-4.9-11.8-11.8s5-11.8 11.8-11.8c6.7 0 11.8 5.1 11.8 11.8.1 6.9-5 11.8-11.8 11.8zM85.1 50c.1-.6-.1-1.4-.3-2-.5-2-2.2-3.3-4.1-3.4-2-.2-3.6.8-4.5 2.8-.8 1.7-.8 3.5 0 5.3.5 1.4 1.5 2.3 2.9 2.6 3.4.8 5.9-1.5 6-5.3z"/><path class="st2" d="M61.5 38.2c2 .1 4.1.3 6.1 1.5 1.8 1.1 2.3 3.2 1.1 4.8-.8 1.1-2.1 1.5-3.7 1.1-.8-.2-1.6-.5-2.4-.7-3.6-.8-6.6 1.7-6.3 5.5.2 2.1.8 3.9 2.9 4.8 1.3.5 2.6.3 3.8 0 .9-.2 1.8-.5 2.7-.7 1.4-.2 2.6.4 3.2 1.7.5 1.1.2 2.5-.7 3.4-1.1 1.1-2.4 1.5-3.8 1.9-5.8 1.6-11.5-.8-14-5.9-2.8-5.7-.9-12.4 4.3-15.8 1.7-1.1 3.9-1.6 6.8-1.6z"/><path class="st14" d="M23.3 56.7c-5.3-3.9-7.4-10.4-3.6-16.1 2.6-3.8 6.2-6 10.3-7.6 7.3-2.9 14.9-3.5 22.6-2.7 5.1.5 9.9 1.9 14.3 4.3 1.2.7 2.4 1.3 3.5 2.3-.7.2-1.1-.4-1.5-.7-3.3-1.8-6.8-2.9-10.5-3.7-4.5-.9-9.1-1.1-13.7-.7-6.7.7-13.1 2.4-18.5 6.7-3.5 2.8-5.8 6.3-5.4 11.1.2 2.2 1 4.1 2 6 .3.5.5.7.5 1.1zM70.9 37.3v.1l-.1-.1z"/></g></g></svg>