<svg xmlns="http://www.w3.org/2000/svg" viewBox="0 0 200 100"><style>.st2{fill:#666}.st19{fill:#303030}</style><g id="ALL"><g id="EUTELLER"><path class="st19" d="M44 37.8c-.8.2-1 .9-1.5 1.5-5.2 6.5-11.3 11.9-18.7 15.8-1.3.7-2 .8-2.4-1-1.7-7 .1-12.9 5.3-17.6 5.2-4.8 11.4-5.8 18.1-3.6 1 .3 1.8.7 1.2 1.9-.6 1-1.3 2.1-2 3z"/><path d="M44 37.8l2.1-3c.5-.6.9-1.2 1.8-.6 2.9 1.8 5.2 4.3 6.7 7.3.1.2 0 .4 0 .6-.4.4-.8.9-1.3 1.2-1.9 1.5-3.8 3-5.8 4.5-.8-.1-1.3.5-1.9.8-6 3.8-12.5 6.7-19.5 8-.3.1-.5.2-.8-.2 7.1-4.4 13-10.1 17.8-17 .5-.3 1.1-.8.9-1.6z" fill="#484848"/><path class="st19" d="M56 53c.5.6.1 1.2-.1 1.7-2.2 6.8-6.7 11.2-13.8 12.6-6.8 1.4-12.5-.9-17.4-6.2 3.5-.1 6.7-.3 9.9-.8 5.7-.9 11.4-2.2 16.6-5 1.6-.8 3.2-1.6 4.8-2.3z"/><path d="M56 53c-1.6.8-3.2 1.6-4.8 2.3-.8-.3-1.4.2-2.1.4-7.7 2.6-15.4 3.9-23.6 3.5.4-.5.9-.5 1.4-.6 7.1-1.9 13.7-5.1 19.7-9.3.4-.3 1-.5 1-1.2 1.9-1.5 3.9-3 5.8-4.5.5-.4.9-.8 1.3-1.2 1.9 3.2 2.6 6.8 1.3 10.6z" fill="#888"/><path class="st2" d="M77.8 47.8H82c1 0 1.4.3 1.4 1.4 0 1-.5 1.3-1.4 1.3h-8.1c-.9 0-1.4.1-1.3 1.2.1 1.6 0 3.1 0 4.7 0 2.1.7 2.9 3 3 2.2.1 4.3.1 6.5 0 .9 0 1.4 0 1.4 1.2 0 1.1-.4 1.5-1.4 1.4-2.5 0-4.9.3-7.4 0-3-.4-4.8-1.9-5-4.9-.3-5-.3-10.1 0-15.1.2-3.1 1.9-4.5 5-4.9 2.6-.3 5.2 0 7.7 0 1.1 0 1 .6 1.1 1.4.1 1-.4 1.2-1.3 1.2-2.1 0-4.2-.1-6.3 0-2.6.1-3.3.9-3.3 3.4 0 1.5-.6 3.4.3 4.3.9.9 2.9.2 4.3.3.1.1.4.1.6.1zM126.6 53.7h-4.7c-.8 0-1 .2-1 1 0 3.2 1.6 4.8 4.7 4.8 1.7 0 3.5-.2 5.2-.3.6 0 1.3-.2 1.3.8 0 .7.2 1.5-.9 1.7-2.7.4-5.4.8-8 .3-2.3-.5-4.1-1.9-4.7-4.3-.9-3.2-.9-6.6 0-9.8.9-3 3.7-4.7 7.2-4.5 3.5.1 6 2 6.7 5.2 1.1 4.8.8 5.2-4 5.2-.6-.1-1.2-.1-1.8-.1zm-1.3-2.2h3.4c.8 0 1-.3 1-1.1-.1-2.7-1.4-4.3-3.9-4.4-2.8-.1-4.4 1.2-4.8 4-.1 1-.1 1.6 1.2 1.5 1-.1 2 0 3.1 0zM160.9 53.7h-4.7c-.8 0-1 .3-1 1 0 3 1.5 4.8 4.5 4.8 1.8 0 3.6 0 5.4-.3.6-.1 1.3-.2 1.3.7 0 .7.2 1.5-.9 1.7-2.7.5-5.4.8-8 .3-2.5-.5-4.2-2-4.8-4.5-.7-3-.7-6 0-8.9.8-3.4 3.7-5.3 7.5-5.1 3.8.2 6.1 2.3 6.7 5.8.7 4.5.7 4.5-3.7 4.5h-2.3zm-1.6-2.2c1.2 0 2.3-.1 3.4 0 1 .1 1.2-.4 1.1-1.3-.1-2.7-1.5-4.2-4.1-4.3-2.7-.1-4.3 1.3-4.6 4-.1 1 0 1.6 1.2 1.5 1.1 0 2.1.1 3 .1z"/><path d="M43.1 30.7c7.2-.4 14.4 4.3 17.5 11.2 3.4 7.4 1.8 16.1-3.9 21.8-3.5 3.5-7.8 5.4-12.8 5.6 4.4-1.4 8.2-3.7 11.1-7.4 2.9-3.8 4.3-8 4.1-12.8-.7-9.1-6.1-15.5-16-18.4z" fill="#535353"/><path class="st2" d="M101.4 52.7v7.8c0 .5.2 1.2-.5 1.4-.7.2-1.8.5-2.2-.2-.5-1.1-1.1-.6-1.7-.3-.9.4-1.8.6-2.8.8-4.3.4-6.7-1.5-6.9-5.8-.1-3.8 0-7.6-.1-11.4 0-1.3.6-1.3 1.6-1.3s1.4.3 1.4 1.3v9.9c0 1.7-.1 3.6 1.7 4.4 2 .9 4 .2 5.9-.7.8-.4.5-1 .5-1.6V45.3c0-1.1.2-1.7 1.5-1.7 1.2 0 1.6.4 1.5 1.6 0 2.5.1 5 .1 7.5zM108.3 52.8c0-1.6-.1-3.2 0-4.9.2-1.7-.5-2.1-1.9-2.1-.4 0-.8 0-1.3-.1-.7-.1-.7-.7-.7-1.3 0-.6.3-.9.9-.9.4 0 .9-.1 1.3 0 1.4.2 1.9-.3 1.7-1.7-.3-1.5.1-2.4 1.9-2.4.7 0 1 .1 1 .8v.7c0 2.5 0 2.6 2.7 2.6.9 0 1.6 0 1.6 1.3s-.8 1.3-1.7 1.3h-1.3c-1.1-.2-1.4.3-1.4 1.4.1 3.2 0 6.5 0 9.7 0 2.3.2 2.6 2.6 2.5 1 0 2-.1 1.7 1.4-.1.5-.3.8-.8.8-4.5.5-6.7-.1-6.5-4.7.2-1.4.2-2.9.2-4.4zM139.9 49.5v11c0 1.2-.3 1.6-1.5 1.6s-1.5-.5-1.5-1.6v-22c0-1.1.3-1.6 1.5-1.6s1.5.5 1.5 1.6v11zM172.2 43.6c.3 0 .5-.1.6 0 1.5 1.8 2.9-.1 4.4-.1.8 0 1.7-.6 1.9.8.2 1.2-.3 1.8-1.6 1.8-.5 0-.9.1-1.4.3-1.6.4-2.5 1.2-2.3 3.1.2 3.6 0 7.3.1 11 0 1.1-.3 1.6-1.5 1.6s-1.5-.5-1.5-1.6V45.2c-.1-1.2.2-1.8 1.3-1.6zM145.1 49.4v-11c0-1.2.3-1.6 1.5-1.6s1.5.5 1.5 1.6v22c0 1.1-.3 1.6-1.5 1.6s-1.5-.5-1.5-1.6v-11z"/></g></g></svg>