<svg xmlns="http://www.w3.org/2000/svg" viewBox="0 0 200 100"><style/><g id="ALL"><g id="GIROPAY"><g id="layer1_2_"><path id="_92653320" d="M39.6 34.4c0-5.2 4.2-9.3 9.4-9.3h102.2c5.2 0 9.4 4.2 9.4 9.3v33.3c0 5.2-4.2 9.3-9.4 9.3H48.9c-5.2 0-9.4-4.2-9.4-9.3l.1-33.3z" fill="#666"/><path id="_92186184" d="M43.3 34.7v32.7c0 3.2 2.6 5.8 5.9 5.8h53.6V28.9H49.2c-3.2 0-5.9 2.6-5.9 5.8zm73.3 16.2c0 2.1-1 3.5-2.8 3.5-1.5 0-2.8-1.4-2.8-3.3 0-2 1.1-3.4 2.8-3.4 1.8-.1 2.8 1.4 2.8 3.2zm-10 11.9h4.5v-7.1c.8 1.6 2.5 2.1 4.2 2.1 3.9 0 6-3.2 6-7.1 0-3.2-2-6.6-5.6-6.6-2 0-4 .8-4.8 2.7v-2.3h-4.2v18.3h-.1zm20.9-9.4c0-1.2 1.2-1.7 2.8-1.7h1.9c0 1.5-1.1 3.1-2.8 3.1-1.1.1-1.9-.5-1.9-1.4zm9.1 4.2c-.2-1-.2-2.1-.2-3.1v-4.8c0-4-2.9-5.4-6.2-5.4-1.9 0-3.6.2-5.2.9v3.1c1.2-.7 2.7-1 4.2-1 1.6 0 3 .5 3 2.3-.6-.1-1.4-.2-2.1-.2-2.4 0-6.8.5-6.8 4.5 0 2.8 2.3 4.1 4.9 4.1 1.9 0 3.1-.7 4.1-2.3 0 .7 0 1.4.1 2.1h4.2v-.2zm2 5.2c.9.2 1.9.3 2.8.3 4.1 0 5.1-3.2 6.4-6.4l4.8-12.2H148l-2.7 8.5-2.8-8.5h-4.8l5.3 13.4c-.3 1.1-1.2 1.8-2.3 1.8-.6 0-1.2 0-1.8-.2l-.3 3.3z" fill="#fff"/><path id="_47303032" d="M54.4 50.9c0-1.8.9-3.3 2.5-3.3 2 0 2.9 1.6 2.9 3.1 0 2-1.3 3.4-2.9 3.4-1.3 0-2.5-1.2-2.5-3.2zm9.9-6.4h-4.1v2.3c-.9-1.6-2.5-2.7-4.4-2.7-4.1 0-5.9 2.9-5.9 6.8s2.3 6.6 5.8 6.6c1.8 0 3.3-.7 4.4-2.3v.8c0 2.5-1.4 3.8-4 3.8-1.9 0-3-.4-4.4-1.1l-.2 3.5c1 .4 2.8.8 5 .8 5.3 0 7.9-1.7 7.9-7.1V44.5h-.1zm7.5-5.5h-4.5v3.3h4.5V39zm-4.5 18.6h4.5V44.5h-4.5v13.1zm17.2-13.3c-.5 0-1-.2-1.5-.2-2 0-3.1 1-3.9 2.7v-2.4H75v13.1h4.5V52c0-2.5 1.2-4.1 3.3-4.1.5 0 1 0 1.5.2l.2-3.8zm7.7 10.4c-2.1 0-2.9-1.7-2.9-3.6 0-2 .8-3.7 2.9-3.7 2.1 0 2.9 1.7 2.9 3.7 0 1.8-.8 3.6-2.9 3.6zm0 3.1c4.3 0 7.6-2.5 7.6-6.8s-3.3-6.9-7.6-6.9-7.6 2.5-7.6 6.9c0 4.3 3.3 6.8 7.6 6.8z" fill="#4d4d4d"/></g></g></g></svg>