<svg xmlns="http://www.w3.org/2000/svg" viewBox="0 0 200 100"><style>.st71{fill:#585858}.st72{fill:#ababab}</style><g id="Calque_29"><path class="st71" d="M56.3 51.1c-.7.4-.8.9-.9 1.6-.3 1.8-.6 3.7-.9 5.5-.2 1.1-.6 1.6-1.8 1.5-.5-.1-1-.1-1.5 0-1.2.1-1.4-.4-1.2-1.5.9-5.1 1.9-10.2 2.7-15.3.1-.9.5-1.1 1.3-1.1 3.3-.1 3.3-.1 4.4 3.1.5 1.5 1.1 3.1 1.7 4.6.2.5.2 1.2.8 1.2.7 0 .5-.9.6-1.4.4-2 .8-4 1.1-6 .2-1.1.6-1.5 1.7-1.5 3.2.2 3.2-.6 2.5 3.1-.8 4.3-1.5 8.6-2.3 12.8-.2.8.1 2.2-1.5 2-1.4-.2-3.3 1-4-1.6-.6-2.4-1.4-4.8-2.7-7zM142.7 50.7v-7.6c0-1.1.4-1.4 1.4-1.3 2.5.1 5 0 7.5 0 1.8 0 3.2.7 3.9 2.4.7 1.8.8 3.6-.6 5.1-.8.8-.8 1 .2 1.6 1.8 1.3 1.8 3.3 1.4 5.2-.4 1.8-1.5 3.2-3.5 3.4-3.1.4-6.2.1-9.3.2-1 0-.8-.7-.8-1.3-.2-2.6-.2-5.2-.2-7.7zm6.4 1.6c-1.4-.3-1.7.4-1.6 1.8 0 1.2.2 1.8 1.6 1.7 2-.1 3-.6 2.9-1.8-.3-1.8-1.6-1.7-2.9-1.7zm-.3-6.9c-.5 0-1.5-.2-1.3 1.2.1.9-.6 2.2 1.3 2.1 1.2-.1 2.4 0 2.4-1.6 0-1.5-1-1.7-2.4-1.7zM111.5 50.7v-7.6c0-1 .3-1.4 1.3-1.4 1.7.1 3.4.1 5.1 0 3.8-.3 6.2 1.2 7 5.5.7 3.6.8 7.1-1.5 10.4-1.1 1.6-2.6 1.9-4.2 2-2.2.2-4.4 0-6.6.1-1 0-1.2-.5-1.2-1.3.1-2.6 0-5.2.1-7.7-.1 0 0 0 0 0zm4.7 0v3.7c0 .5 0 1 .7 1.2 1.3.3 2.8-.5 3.2-1.8.7-2.1.6-4.3-.1-6.3-.5-1.5-2-1.3-3.2-1.2-1.2.1-.6 1.1-.6 1.8v2.6zM127.5 50.6v-7.5c0-1.1.3-1.5 1.4-1.5 3.3.1 6.6.1 9.8 0 1.8-.1 1.3 1.2 1.3 2.1.1 1 .2 2-1.4 1.8-1.7-.1-3.4 0-5.1-.1-1.1 0-1.3.5-1.3 1.4 0 1 .3 1.5 1.3 1.4 1.4-.1 2.8.1 4.2 0 1.5-.1 1.8.5 1.8 1.9 0 1.2-.1 2.1-1.7 1.9-1.5-.1-2.9 0-4.4-.1-1.2-.1-1.3.6-1.2 1.5.1.8-.4 1.9 1.2 1.9h5.4c1.1 0 1.6.3 1.5 1.4-.1.6-.1 1.1 0 1.7.1.7-.3 1-1 1h-10.8c-.9 0-1-.5-1-1.2v-7.6zM94 59.8c.5-2.2 1.8-3.8 2.6-5.7 1.6-3.8 3.3-7.5 4.9-11.2.4-.8.8-1.3 1.8-1.2 1.3.1 2.7.1 4.1 0 .9 0 1.2.3 1.2 1.2v15.7c0 .9-.4 1.2-1.2 1.2h-1.9c-1 .1-1.4-.4-1.2-1.3.2-1.5-.6-1.7-1.8-1.7-1.7-.1-3.1.1-3.5 2.1-.1.6-.6.9-1.3.9H94zm7.8-7c.9-.2 2 .7 2.2-.8.1-1.2 0-2.5 0-4.2-1.1 1.8-1.6 3.3-2.2 5zM75.7 41.7c2.7-.5 4.7.2 5.9 2.8.8 1.8.6 2.3-1.5 2.4-1.2.1-2.6.4-3-1.4-.2-.8-1.2-.9-2.1-.7-.6.1-1 .5-1.1 1.2-.1.9.6 1.2 1.3 1.6 1 .5 2 1 3 1.6 2.1 1.1 3.1 3.3 2.5 6.7-.4 2.1-2.7 4.1-5 4.3-1.5.1-3 .2-4.5-.4-1.9-.7-3.5-2.9-3.5-4.9 0-.7.2-1 1-1 .6 0 1.2-.1 1.9-.2 1-.2 1.6 0 1.8 1.3.2 1.5 1.8 2.1 3.2 1.4 1.3-.7 1.4-2.1.1-2.9-1.2-.7-2.5-1.3-3.7-2-1.8-1-2.6-2.6-2.5-4.7.1-2 1-3.5 2.8-4.5 1.1-.9 2.2-.4 3.4-.6zM173.1 41.7c1.9 0 3.8.1 5.8 0 .8 0 1.2.2 1.1 1v.3c.1 3.1.1 3.2-3.1 3.2-1.2 0-1.7.3-1.6 1.6.1 3.3 0 6.7.1 10 0 1.4-.4 1.9-1.8 1.8-3.4-.2-2.9.4-2.9-2.9 0-3-.1-6 0-9 0-1.3-.4-1.7-1.6-1.5h-.5c-2.6 0-2.5 0-2.7-2.6-.1-1.7.5-2 2-1.9 1.7.1 3.5 0 5.2 0zM94.9 46.1c-1.6-.5-2.3.4-2.5 2.2-.4 3.3-1.2 6.5-1.7 9.8-.2 1.1-.6 1.5-1.7 1.5-3.2 0-3.2 0-2.7-3.1.5-3 1-6 1.6-9 .2-1.2-.1-1.5-1.3-1.4-3.5 0-3.2.7-2.6-3.3.1-.8.5-1.1 1.4-1.1h11.7c1 0 1.4.3 1.1 1.3-.1.2-.1.4-.1.7-.4 2.5-.4 2.5-3.2 2.4zM163.8 50.9v7.3c0 1.1-.2 1.6-1.4 1.5-3.9-.1-3.4.4-3.4-3.3V43.2c0-1.1.3-1.4 1.4-1.4 3.4 0 3.4-.1 3.4 3.4-.1 1.8-.1 3.7 0 5.7-.1 0 0 0 0 0zM44.1 59.6h-1.2c-.8-.1-1.3-.1-1-1.3 1.1-5.1 2-10.2 2.9-15.3.2-1.2.7-1.3 1.7-1.3 3.3 0 3.3 0 2.7 3.3l-2.1 12c-.5 2.6-.5 2.6-3 2.6z"/><path class="st72" d="M34.9 59.9c-3.9 0-3.9 0-3.2-3.8.7-3.9.7-3.9 4.6-3.9 3.7 0 3.7 0 3 3.7v.3c-.6 3.7-.6 3.7-4.4 3.7zM23.9 59.8c-3.8 0-3.8 0-3.1-3.8.8-4 .8-4 4.8-4 4.2 0 3.5-.1 2.9 3.4 0 .2-.1.3-.1.5-.8 4.7-.2 3.9-4.5 3.9zM36.6 49.3c-3.8 0-3.8 0-3.2-3.7.9-4.9.1-4 4.7-4 3.6-.1 3.6 0 3 3.5 0 .2-.1.3-.1.5-.6 3.7-.6 3.7-4.4 3.7z"/></g></svg>