<svg id="ALL" xmlns="http://www.w3.org/2000/svg" viewBox="0 0 200 100"><defs><style>.cls-1{fill:#8c8c8c;}.cls-2{fill:#656565;}.cls-3{fill:#8d8d8d;}.cls-4{fill:#1f1f1f;}.cls-5{fill:#202020;}.cls-6{fill:#212121;}.cls-7{fill:#282828;}.cls-8{fill:#696969;}.cls-9{fill:#8b8b8b;}.cls-10{fill:#252525;}</style></defs><title>interacgrayZIMPLER copy</title><g id="ZIMPLER"><path class="cls-1" d="M63.38,34.4a3.64,3.64,0,0,1-3.7,3.47A2.62,2.62,0,0,1,57,35.28a3.68,3.68,0,0,1,3.65-3.53A2.49,2.49,0,0,1,63.38,34.4Z"/><path class="cls-2" d="M100.51,79.17a5.5,5.5,0,0,0,3.23-5.36q0-23.13,0-46.26a5.53,5.53,0,0,0-3.24-5.41h53.43c3.53,0,5.33,1.81,5.33,5.36q0,23.19,0,46.38c0,3.46-1.83,5.29-5.28,5.29H100.51Zm17.64-30c-.09-1.34-.14-2.42-.23-3.5a5.81,5.81,0,0,0-.22-1.06c-.54-1.95-1.84-2.85-4.08-2.85s-3.79.89-4,2.88a37.9,37.9,0,0,0,0,7.78c.19,1.91,1.78,2.82,3.91,2.86s3.63-.84,4.13-2.78A29.29,29.29,0,0,0,118.15,49.12Zm4.31-3.48,0-.27a9.41,9.41,0,0,0-2.29-.13c-.22,0-.43.92-.43,1.42,0,2.41,0,4.83,0,7.25,0,1.14.66,1,1.42,1.07s1.2-.12,1.17-1c-.06-1.81,0-3.62,0-5.43,0-.82.26-1.57,1.29-1.55s1.06.81,1.07,1.56c0,1.81,0,3.62,0,5.43,0,.94.45,1.07,1.2,1s1.44.19,1.41-.93c-.06-2.29,0-4.59-.13-6.88a2.27,2.27,0,0,0-3-2.19A10.6,10.6,0,0,0,122.45,45.64Zm18.59,0,0-.26a19.57,19.57,0,0,0-2.31-.17c-.15,0-.4.56-.4.86,0,2.66,0,5.32,0,8,0,1.13.78.87,1.43.91s1.17,0,1.14-.93c-.05-1.81,0-3.62,0-5.44,0-.87.22-1.67,1.32-1.64s1,.86,1,1.59c0,1.81,0,3.63,0,5.44,0,1,.54,1,1.24,1s1.3.09,1.28-.94c0-2.25,0-4.51,0-6.77A2.27,2.27,0,0,0,142.82,45,10.61,10.61,0,0,0,141,45.64Zm13.33,6.12c-1.79-.3-1.87-.21-2.33.55a5.17,5.17,0,0,1-1.23,1.06c-.33-.44-.85-.84-1-1.34-.33-1.33-.08-1.56,1.26-1.58h1.21c2.64,0,2.75-.15,2.17-2.81,0-.08,0-.16,0-.24a3,3,0,0,0-3.11-2.51c-1.88-.1-3.27.64-3.76,2.17a10.13,10.13,0,0,0,0,6.06c.51,1.69,2.31,2.44,4.39,2A2.88,2.88,0,0,0,154.37,51.76Zm-25.12-9.7c0,.4-.09.75-.09,1.11,0,3.5,0,7,0,10.5,0,1,.28,1.32,1.29,1.33s1.36-.37,1.34-1.4c-.06-3.18,0-6.36,0-9.53C131.76,41.77,131.76,41.77,129.25,42.06Zm4.61,7.86c0,1.36,0,2.73,0,4.09,0,1,.58,1,1.25,1s1.28.06,1.26-.95q-.06-4,0-7.94c0-1-.58-1-1.26-1s-1.3-.06-1.26.95C133.9,47.35,133.86,48.64,133.86,49.92Zm1.25-8.11c-.88-.14-1.3.13-1.29,1.15s.49,1.07,1.27,1.09,1.32-.15,1.3-1.18S135.91,41.71,135.11,41.82Z"/><path class="cls-3" d="M45,50.54q0-11.6,0-23.2c0-3.31,1.86-5.2,5.13-5.21q23.2,0,46.39,0c2.33,0,4.23.7,5.18,3a6.23,6.23,0,0,1,.38,2.35q0,23.2,0,46.39c0,3.45-1.89,5.32-5.32,5.32q-23.44,0-46.88,0A4.64,4.64,0,0,1,45,74.22Q44.95,62.38,45,50.54ZM55.71,65.94l-.61,0a7.81,7.81,0,0,1-.23-1.3c0-2.54,0-5.07,0-7.61a1.8,1.8,0,1,0-3.57,0c0,5.07-.07,10.14,0,15.21a4.77,4.77,0,0,0,5,4.78c1.29,0,2.58,0,3.86,0,.85,0,1.23-.22,1.23-1.15,0-4,0-8,0-12a2.56,2.56,0,0,0-.55-1.77c-1.5-1.24-3.14-2.31-4.72-3.44l-.41.17ZM90.94,48.23c0-2.81,0-5.18,0-7.54,0-1.45-.6-2.23-1.74-2.36a6.21,6.21,0,0,0-4.74,1.34,3.29,3.29,0,0,0-1.16,3.13c1.26-.24,2.48-.13,2.88-1.67.09-.33.8-.56,1.26-.69.17,0,.68.37.65.51a2.92,2.92,0,0,1-.56,1.34,3.75,3.75,0,0,1-1.14.64A19.11,19.11,0,0,0,84,44.18a3.63,3.63,0,0,0-.71,4.67c.87,1.09,2.7,1.09,4.15,0a7.18,7.18,0,0,1,.55-.47,1.08,1.08,0,0,1,.53-.13C89.42,48.23,90.29,48.23,90.94,48.23Zm-15.42,0c-1.16.25-2.36,0-2.73,1.57-.09.37-1,.8-1.52.72s-.69-.86-.85-1.38c-.22-.75.39-.93,1-1.06,1.17-.27,2.35-.53,3.52-.83a1.47,1.47,0,0,0,.81-.44c.91-1.32-.41-4.42-2-4.81a5.12,5.12,0,0,0-5.6,2.81A9.75,9.75,0,0,0,67.77,51a2.46,2.46,0,0,0,2.38,2,5.59,5.59,0,0,0,4.57-1.77A3.1,3.1,0,0,0,75.52,48.25ZM98,39.57l-.09.36c.66-.14,1.33-.26,2-.43a.86.86,0,0,0,.52-.43,2.55,2.55,0,0,0-1.51-2.85,5.45,5.45,0,0,0-6.36,3.29,9.44,9.44,0,0,0,.06,5.82,3.11,3.11,0,0,0,1.62,1.74c2.35.89,5.57-1.05,6.1-3.52.35-1.62.19-1.74-1.45-1.41-.85.17-1.14.57-1.32,1.41-.11.5-.86.86-1.32,1.28-.34-.42-.94-.82-1-1.27a19.81,19.81,0,0,1,0-3.6c.06-.9.52-1.76,1.52-1.68C97.2,38.33,97.57,39.12,98,39.57ZM54.9,54.5c0-1.28,0-2.55,0-3.82a4.79,4.79,0,0,1,.45-2A1.56,1.56,0,0,1,56.6,48c.3,0,.74.71.77,1.13.1,1.77.06,3.54.09,5.31,0,.46.07.91.12,1.48a15.46,15.46,0,0,0,2-.47,1.07,1.07,0,0,0,.61-.75c0-2.58,0-5.15-.07-7.73a1.59,1.59,0,0,0-2-1.59,21.55,21.55,0,0,0-3.32,1.21c-.8-.41-2.75.12-2.79,1.09-.06,1.93,0,3.87,0,5.8a1.07,1.07,0,0,0,.67.74A16.12,16.12,0,0,0,54.9,54.5Zm-7.52,3.61c2.63.07,3-.26,3-2.62q0-6.32,0-12.65c0-.47-.06-.94-.09-1.51-.47.06-.81.13-1.16.16-1.31.1-1.84.69-1.75,2.09.13,2,0,4.09,0,6.14C47.37,52.49,47.37,55.25,47.37,58.11ZM61,47c1.31-.47,1.29.29,1.29,1.09,0,1.32,0,2.65,0,4,.1,3,.11,2.92,3.09,2,.06,0,.1-.11-.07.09,0-2.58-.12-4.9-.1-7.21a1.41,1.41,0,0,1,.72-1c1.36-.59,1.51-.84,1-2.32l-1.64.14-.16-1.9a7,7,0,0,0-.82,0c-1.21.16-2.34.4-2.05,2.08a.79.79,0,0,1-.35.68C60.61,44.9,60.93,45.85,61,47Zm18.63-6c-.6-.87-1.46-.17-2.2.06-.3.09-.59.79-.59,1.22-.05,2.65,0,5.3,0,8A9.79,9.79,0,0,0,77,51.31c.44-.07.75-.14,1.07-.17,1.26-.1,1.82-.66,1.7-2a39.46,39.46,0,0,1,0-4.34,2.3,2.3,0,0,1,1.54-2.23c1.46-.58,1.67-1.14,1-3.14ZM50.47,58.6c-1.33.31-2.39.51-3.41.82a1.1,1.1,0,0,0-.62.76,1.45,1.45,0,0,0,1.26,1.74c1,.22,2.7-.46,2.76-1.09S50.47,59.5,50.47,58.6Zm0,7.57c-1.3.31-2.42.54-3.52.86a1,1,0,0,0-.51.71,1.43,1.43,0,0,0,1.27,1.72c1.06.21,2.69-.42,2.75-1.08S50.47,67.05,50.47,66.17Zm0-2.1c0-1.64-.05-1.69-1.55-1.35-.55.13-1.1.24-1.63.4A1.13,1.13,0,0,0,46.65,65c.79,1.09,1.84.61,2.86.46S50.55,64.71,50.49,64.08ZM97.43,34.49a2.76,2.76,0,0,0,2.92-2.83,2.85,2.85,0,0,0-2.9-3,3,3,0,0,0-3,2.87A2.82,2.82,0,0,0,97.43,34.49Z"/><path class="cls-4" d="M55.71,65.94V58.89l.41-.17c1.59,1.13,3.22,2.2,4.72,3.44a2.56,2.56,0,0,1,.55,1.77c0,4,0,8,0,12,0,.93-.38,1.18-1.23,1.15-1.29,0-2.58,0-3.86,0a4.77,4.77,0,0,1-5-4.78c-.08-5.07,0-10.14,0-15.21a1.8,1.8,0,1,1,3.57,0c0,2.54,0,5.07,0,7.61a7.81,7.81,0,0,0,.23,1.3Z"/><path class="cls-4" d="M90.94,48.23c-.66,0-1.52,0-2.39,0a1.08,1.08,0,0,0-.53.13,7.18,7.18,0,0,0-.55.47c-1.45,1.1-3.28,1.1-4.15,0A3.63,3.63,0,0,1,84,44.18a19.11,19.11,0,0,1,2.33-1.25,3.75,3.75,0,0,0,1.14-.64A2.92,2.92,0,0,0,88.08,41c0-.14-.48-.56-.65-.51-.47.13-1.18.36-1.26.69-.4,1.54-1.62,1.42-2.88,1.67a3.29,3.29,0,0,1,1.16-3.13,6.21,6.21,0,0,1,4.74-1.34c1.14.13,1.72.91,1.74,2.36C91,43.05,90.94,45.42,90.94,48.23Zm-2.62-4L87.88,44A12.35,12.35,0,0,0,86,45.25c-.52.5-.75,1.26-.05,1.79a1.11,1.11,0,0,0,1.71-.53A11.26,11.26,0,0,0,88.32,44.28Z"/><path class="cls-4" d="M75.52,48.25a3.1,3.1,0,0,1-.81,3A5.59,5.59,0,0,1,70.14,53a2.46,2.46,0,0,1-2.38-2,9.75,9.75,0,0,1,.36-6.15A5.12,5.12,0,0,1,73.72,42c1.6.39,2.91,3.49,2,4.81a1.47,1.47,0,0,1-.81.44c-1.17.3-2.34.57-3.52.83-.58.13-1.2.3-1,1.06.16.53.49,1.33.85,1.38s1.43-.35,1.52-.72C73.16,48.27,74.36,48.5,75.52,48.25Zm-5.05-1.93c1.76,0,2.69-.32,2.56-.94a1.84,1.84,0,0,0-.9-1.27C71.25,43.85,70.6,44.77,70.47,46.32Z"/><path class="cls-4" d="M98,39.57c-.41-.45-.79-1.24-1.23-1.28-1-.08-1.46.78-1.52,1.68a19.81,19.81,0,0,0,0,3.6c.05.45.64.85,1,1.27.46-.42,1.21-.78,1.32-1.28.18-.84.47-1.24,1.32-1.41,1.64-.33,1.8-.21,1.45,1.41-.54,2.47-3.75,4.41-6.1,3.52a3.11,3.11,0,0,1-1.62-1.74,9.44,9.44,0,0,1-.06-5.82,5.45,5.45,0,0,1,6.36-3.29,2.55,2.55,0,0,1,1.51,2.85.86.86,0,0,1-.52.43c-.65.18-1.32.29-2,.43Z"/><path class="cls-4" d="M54.9,54.5a16.12,16.12,0,0,1-2.19-.29,1.07,1.07,0,0,1-.67-.74c-.06-1.93-.07-3.87,0-5.8,0-1,2-1.5,2.79-1.09a21.55,21.55,0,0,1,3.32-1.21,1.59,1.59,0,0,1,2,1.59c.12,2.57.1,5.15.07,7.73a1.07,1.07,0,0,1-.61.75,15.46,15.46,0,0,1-2,.47c0-.57-.11-1-.12-1.48,0-1.77,0-3.54-.09-5.31,0-.41-.46-1.1-.77-1.13a1.56,1.56,0,0,0-1.23.73,4.79,4.79,0,0,0-.45,2C54.85,51.95,54.9,53.22,54.9,54.5Z"/><path class="cls-5" d="M47.37,58.11c0-2.86,0-5.62,0-8.39,0-2,.1-4.1,0-6.14-.09-1.4.45-2,1.75-2.09.35,0,.69-.09,1.16-.16,0,.57.09,1,.09,1.51q0,6.32,0,12.65C50.35,57.85,50,58.18,47.37,58.11Z"/><path class="cls-4" d="M61,47c-.11-1.12-.44-2.08.9-2.42a.79.79,0,0,0,.35-.68C62,42.2,63.13,42,64.35,41.8a7,7,0,0,1,.82,0l.16,1.9L67,43.55c.53,1.48.39,1.73-1,2.32a1.41,1.41,0,0,0-.72,1c0,2.32,0,4.63.1,7.21.18-.21.14-.11.07-.09-3,.94-3,1-3.09-2,0-1.32,0-2.65,0-4C62.34,47.27,62.35,46.5,61,47Z"/><path class="cls-4" d="M79.68,41l2.6-1.59c.68,2,.48,2.56-1,3.14a2.3,2.3,0,0,0-1.54,2.23,39.46,39.46,0,0,0,0,4.34c.12,1.36-.44,1.93-1.7,2-.31,0-.62.1-1.07.17a9.79,9.79,0,0,1-.13-1.07c0-2.65,0-5.3,0-8,0-.43.29-1.12.59-1.22C78.21,40.83,79.08,40.13,79.68,41Z"/><path class="cls-6" d="M50.47,58.6c0,.9,0,1.58,0,2.24s-1.77,1.3-2.76,1.09a1.45,1.45,0,0,1-1.26-1.74,1.1,1.1,0,0,1,.62-.76C48.08,59.11,49.14,58.91,50.47,58.6Z"/><path class="cls-5" d="M50.47,66.17c0,.88,0,1.55,0,2.21s-1.69,1.29-2.75,1.08a1.43,1.43,0,0,1-1.27-1.72A1,1,0,0,1,47,67C48,66.71,49.17,66.48,50.47,66.17Z"/><path class="cls-5" d="M50.49,64.08c.07.64,0,1.23-1,1.37s-2.07.63-2.86-.46a1.13,1.13,0,0,1,.64-1.86c.54-.16,1.09-.27,1.63-.4C50.43,62.38,50.5,62.44,50.49,64.08Z"/><path class="cls-7" d="M97.43,34.49a2.82,2.82,0,0,1-2.93-3,3,3,0,0,1,3-2.87,2.85,2.85,0,0,1,2.9,3A2.76,2.76,0,0,1,97.43,34.49Zm.08-.46a2.3,2.3,0,0,0,2.36-2.48,2.37,2.37,0,0,0-2.45-2.42A2.44,2.44,0,0,0,95,31.7,2.38,2.38,0,0,0,97.51,34Z"/><path class="cls-2" d="M115.5,48.46c-.12,1.17-.2,2.29-.36,3.4a1.45,1.45,0,0,1-1.44,1.37,1.39,1.39,0,0,1-1.55-1.38c-.07-2.28-.07-4.56,0-6.84a1.34,1.34,0,0,1,1.47-1.31A1.43,1.43,0,0,1,115.12,45C115.3,46.17,115.38,47.33,115.5,48.46Z"/><path class="cls-8" d="M151.05,49.36c-.6-.5-1.21-.76-1.25-1.1-.09-.74.2-1.5,1.13-1.55s1.21.76,1.18,1.48C152.11,48.53,151.55,48.84,151.05,49.36Z"/><path class="cls-9" d="M88.32,44.28a11.26,11.26,0,0,1-.63,2.22A1.11,1.11,0,0,1,86,47c-.7-.53-.47-1.29.05-1.79A12.35,12.35,0,0,1,87.88,44Z"/><path class="cls-9" d="M70.47,46.32c.13-1.55.78-2.47,1.66-2.21a1.84,1.84,0,0,1,.9,1.27C73.15,46,72.23,46.33,70.47,46.32Z"/><path class="cls-1" d="M97.51,34A2.38,2.38,0,0,1,95,31.7a2.44,2.44,0,0,1,2.45-2.57,2.37,2.37,0,0,1,2.45,2.42A2.3,2.3,0,0,1,97.51,34Zm1-.4c0-1.25.05-2.18,0-3.09,0-.24-.45-.59-.73-.64s-1.16.09-1.17.21c-.09,1-.05,2.07-.05,3.11l.2,0,.57-1.1Z"/><path class="cls-10" d="M98.52,33.63,97.3,32.1l-.57,1.1-.2,0c0-1,0-2.08.05-3.11,0-.12.78-.27,1.17-.21s.7.39.73.64C98.58,31.46,98.52,32.38,98.52,33.63Z"/></g></svg>