<?xml version="1.0" encoding="UTF-8" standalone="no"?>
<!-- Generator: Gravit.io -->
<svg xmlns="http://www.w3.org/2000/svg" xmlns:xlink="http://www.w3.org/1999/xlink" style="isolation:isolate" viewBox="0 0 560 240" width="560pt" height="240pt"><defs><clipPath id="_clipPath_f68kK71HF66hT2TwKcLkewXUsN2dFNB9"><rect width="560" height="240"/></clipPath></defs><g clip-path="url(#_clipPath_f68kK71HF66hT2TwKcLkewXUsN2dFNB9)"><g><path d=" M 159.67 182.5 L 159.67 57.5 L 166.002 57.5 L 166.002 182.5 L 159.67 182.5 Z  M 226.169 73.752 L 226.169 73.126 L 251.503 73.126 L 251.503 135.626 C 251.503 152.884 237.325 166.876 219.836 166.876 C 202.347 166.876 188.17 152.884 188.17 135.626 L 213.503 135.626 C 213.503 139.077 216.338 141.876 219.836 141.876 C 223.333 141.876 226.169 139.077 226.169 135.626 L 226.169 73.752 Z  M 317.645 106.678 C 320.447 109.672 322.609 113.312 324.071 117.498 C 325.507 121.623 326.236 126.292 326.236 131.375 C 326.236 132.594 326.189 133.703 326.098 134.67 C 325.966 136.018 325.842 136.61 325.591 137.112 L 324.892 138.5 L 281.077 138.5 C 281.292 139.49 281.611 140.427 282.033 141.294 C 282.821 142.924 283.874 144.358 285.16 145.558 C 286.444 146.754 287.946 147.699 289.627 148.369 C 291.296 149.037 293.129 149.375 295.075 149.375 C 298.908 149.375 301.826 148.548 303.746 146.917 L 304.773 146.045 L 323.345 151.15 L 321.364 154.029 C 319.611 156.579 317.415 158.84 314.835 160.75 C 312.262 162.654 309.293 164.167 306.01 165.247 C 302.725 166.328 299.047 166.875 295.075 166.875 C 290.562 166.875 286.204 166.082 282.124 164.517 C 278.017 162.943 274.36 160.613 271.256 157.592 C 268.159 154.582 265.65 150.862 263.798 146.535 C 261.943 142.207 261.003 137.232 261.003 131.75 C 261.003 126.61 261.898 121.872 263.665 117.667 C 265.43 113.473 267.846 109.819 270.85 106.808 C 273.854 103.799 277.363 101.43 281.281 99.767 C 285.212 98.097 289.343 97.25 293.555 97.25 C 298.59 97.25 303.193 98.068 307.235 99.683 C 311.323 101.314 314.824 103.668 317.645 106.678 Z  M 281.665 122.875 L 305.968 122.875 C 305.829 122.309 305.651 121.753 305.441 121.21 C 304.939 119.922 304.173 118.764 303.164 117.768 C 302.143 116.759 300.846 115.934 299.309 115.313 C 297.765 114.69 295.871 114.375 293.681 114.375 C 291.769 114.375 290.045 114.703 288.561 115.349 C 287.055 116.007 285.768 116.874 284.735 117.927 C 283.672 119.01 282.811 120.25 282.175 121.61 C 281.977 122.033 281.806 122.455 281.665 122.875 Z  M 438.619 107.183 C 441.711 110.28 444.153 113.983 445.877 118.188 C 447.596 122.39 448.467 127.038 448.467 132 C 448.467 136.962 447.596 141.627 445.88 145.865 C 444.158 150.115 441.714 153.842 438.619 156.942 C 435.526 160.038 431.842 162.493 427.67 164.239 C 423.489 165.988 418.852 166.875 413.888 166.875 C 409.011 166.875 404.399 165.989 400.178 164.243 C 395.953 162.494 392.262 160.034 389.207 156.929 C 386.159 153.833 383.741 150.11 382.022 145.865 C 380.306 141.632 379.434 136.967 379.434 132 C 379.434 127.032 380.307 122.385 382.026 118.188 C 383.746 113.988 386.162 110.289 389.208 107.195 C 392.262 104.092 395.953 101.63 400.178 99.882 C 404.399 98.135 409.011 97.25 413.888 97.25 C 418.852 97.25 423.489 98.137 427.669 99.885 C 431.844 101.632 435.527 104.088 438.619 107.183 Z  M 427.352 139.488 C 428.169 137.365 428.582 134.847 428.582 132 C 428.582 129.158 428.169 126.664 427.357 124.588 C 426.555 122.54 425.462 120.807 424.106 119.432 C 422.766 118.074 421.214 117.052 419.495 116.393 C 417.726 115.718 415.841 115.375 413.888 115.375 C 411.934 115.375 410.047 115.718 408.28 116.393 C 406.571 117.048 405.05 118.062 403.756 119.408 C 402.419 120.797 401.313 122.55 400.467 124.622 C 399.622 126.688 399.196 129.169 399.196 132 C 399.196 134.835 399.624 137.344 400.472 139.453 C 401.318 141.562 402.422 143.332 403.756 144.715 C 405.063 146.077 406.598 147.118 408.321 147.809 C 410.074 148.517 411.947 148.875 413.888 148.875 C 415.827 148.875 417.7 148.517 419.456 147.81 C 421.187 147.113 422.753 146.064 424.106 144.693 C 425.46 143.322 426.55 141.57 427.352 139.488 Z  M 515.991 113.876 C 516.993 117.026 517.5 120.431 517.5 124 L 517.5 165 L 497.741 165 L 497.741 126.5 C 497.741 123.299 496.941 120.57 495.364 118.39 C 493.955 116.446 491.418 115.5 487.608 115.5 C 484.192 115.5 481.722 116.548 480.06 118.701 C 478.235 121.069 477.348 123.905 477.348 127.375 L 477.348 165 L 457.589 165 L 457.589 99.125 L 476.967 99.125 L 476.967 102.759 C 478.316 101.614 479.802 100.665 481.403 99.924 C 485.063 98.233 488.854 97.375 492.675 97.375 C 496.82 97.375 500.498 98.081 503.603 99.474 C 506.733 100.879 509.364 102.859 511.425 105.361 C 513.431 107.805 514.968 110.669 515.991 113.875 L 515.991 113.876 Z  M 367.214 147.707 C 368.488 147.549 368.855 147.472 368.937 147.451 L 372.088 146.667 L 372.088 163.566 L 370.499 164.194 C 370.14 164.337 369.465 164.569 367.417 165.104 C 365.751 165.539 363.509 165.751 360.562 165.751 C 354.161 165.751 349.006 163.913 345.24 160.289 C 341.454 156.651 339.535 151.549 339.535 145.126 L 339.535 117.001 L 331.935 117.001 L 331.935 99.126 L 339.533 99.126 L 339.535 80.499 L 359.168 80.499 L 359.168 99.126 L 371.962 99.126 L 371.962 117.001 L 359.168 117.001 L 359.168 142.749 C 359.168 144.673 359.559 146.062 360.294 146.764 C 361.056 147.491 362.506 147.876 364.488 147.876 C 365.392 147.876 366.307 147.818 367.214 147.707 Z  M 49.016 98.491 C 48.474 98.633 48.031 98.066 48.299 97.579 C 54.304 86.709 64.63 78.189 77.707 74.732 C 90.783 71.276 104.044 73.559 114.752 80.011 C 115.231 80.299 115.135 81.009 114.592 81.153 L 49.016 98.491 Z  M 129.415 93.845 C 132.266 98.026 134.482 102.731 135.878 107.871 C 137.274 113.011 137.738 118.178 137.388 123.206 C 137.369 123.473 137.178 123.7 136.916 123.768 L 51.279 146.41 C 51.017 146.478 50.737 146.377 50.585 146.156 C 47.735 141.973 45.518 137.27 44.121 132.13 C 42.727 126.99 42.262 121.822 42.611 116.793 C 42.63 116.527 42.822 116.301 43.084 116.231 L 128.72 93.59 C 128.983 93.521 129.264 93.622 129.415 93.845 Z  M 130.984 141.509 C 131.525 141.367 131.968 141.934 131.7 142.421 C 125.696 153.291 115.369 161.811 102.293 165.268 C 89.216 168.724 75.957 166.441 65.248 159.989 C 64.77 159.701 64.866 158.991 65.407 158.847 L 130.984 141.509 Z " fill="#888"/></g></g></svg>