<svg xmlns="http://www.w3.org/2000/svg" viewBox="0 0 200 100"><style>.st7{fill:#787878}</style><g id="ALL"><g id="MAESTRO"><path d="M81.4 83v-4.3c.1-1.4-1-2.7-2.4-2.8h-.3c-1-.1-1.9.4-2.5 1.2-.5-.8-1.4-1.3-2.3-1.2-.8 0-1.6.4-2 1V76h-1.5v7h1.5v-4c-.1-.9.5-1.7 1.4-1.8h.3c1 0 1.5.7 1.5 1.8v4h1.5v-4c-.1-.9.5-1.7 1.4-1.8h.3c1 0 1.5.7 1.5 1.8v4h1.6zm8.6-3.6v-3.5h-1.5v.8c-.5-.7-1.3-1.1-2.2-1-2 0-3.7 1.6-3.7 3.7s1.6 3.7 3.7 3.7c.9 0 1.7-.3 2.2-1v.9H90v-3.6zm-5.7 0c.1-1.2 1.1-2.1 2.2-2 1.2.1 2.1 1.1 2 2.2-.1 1.1-1 2-2.1 2-1.2 0-2.1-.9-2.1-2v-.2zm38.4-3.6c.5 0 1 .1 1.5.3.4.2.8.4 1.2.8.3.3.6.7.8 1.2.4.9.4 2 0 2.9-.2.4-.5.8-.8 1.2-.3.3-.7.6-1.2.8-1 .4-2 .4-3 0-.4-.2-.8-.4-1.2-.8-.3-.3-.6-.7-.8-1.2-.4-.9-.4-2 0-2.9.2-.4.4-.8.8-1.2.3-.3.7-.6 1.2-.8.4-.2 1-.3 1.5-.3zm0 1.5c-.3 0-.6.1-.9.2-.3.1-.5.3-.7.5s-.4.5-.5.7c-.2.6-.2 1.2 0 1.8.1.3.3.5.5.7.2.2.4.4.7.5.6.2 1.2.2 1.7 0 .3-.1.5-.3.7-.5.2-.2.4-.5.5-.7.2-.6.2-1.2 0-1.8-.1-.3-.3-.5-.5-.7s-.5-.4-.7-.5c-.2-.2-.5-.3-.8-.2zm-24.4 2.1c0-2.2-1.4-3.7-3.3-3.7-2 0-3.6 1.7-3.6 3.7s1.7 3.6 3.7 3.6c1 0 2.1-.3 2.9-1l-.7-1.1c-.6.5-1.3.7-2 .7-1 .1-2-.7-2.1-1.7h5.2c-.1-.1-.1-.2-.1-.5zm-5.2-.6c.1-1 .9-1.7 1.8-1.7 1 0 1.7.7 1.8 1.7h-3.6zm11.7-1.1c-.7-.4-1.4-.6-2.2-.6-.8 0-1.3.3-1.3.8s.5.6 1.2.7l.7.1c1.5.2 2.4.9 2.4 2.1 0 1.2-1.2 2.3-3.2 2.3-1.1 0-2.1-.3-3-.9l.7-1.2c.7.5 1.5.8 2.3.7 1 0 1.6-.3 1.6-.8 0-.4-.4-.6-1.2-.7l-.7-.1c-1.6-.2-2.4-.9-2.4-2.1 0-1.4 1.1-2.2 2.9-2.2 1 0 2 .2 2.8.7l-.6 1.2zm7.3-.4h-2.5v3.1c0 .7.2 1.2 1 1.2.5 0 .9-.2 1.3-.4l.4 1.3c-.6.4-1.2.5-1.9.5-1.8 0-2.4-1-2.4-2.6v-3.2h-1.4v-1.4h1.4v-2.1h1.5v2.1h2.5v1.5h.1zm5.3-1.5c.4 0 .7.1 1.1.2l-.5 1.5c-.3-.1-.6-.2-.9-.2-1 0-1.5.6-1.5 1.8V83h-1.5v-7h1.5v.8c.4-.6 1.1-1 1.8-1zm10.6 6.1c.1 0 .2 0 .3.1.1 0 .2.1.2.1l.2.2c.1.2.1.4 0 .5 0 .1-.1.2-.2.2-.1.1-.1.1-.2.1s-.2.1-.3.1c-.3 0-.5-.2-.7-.4-.1-.2-.1-.4 0-.5 0-.1.1-.2.2-.2.1-.1.1-.1.2-.1.1-.1.2-.1.3-.1zm0 1.4h.2c.1 0 .1-.1.2-.1.2-.2.2-.6 0-.8 0 0-.1-.1-.2-.1h-.4c-.1 0-.1.1-.2.1-.2.2-.2.5 0 .7.2.1.3.1.4.2zm.1-.9c.1 0 .1 0 .2.1 0 0 .1.1.1.2 0 0 0 .1-.1.1 0 0-.1.1-.2.1l.2.2h-.2l-.2-.2h-.1v.2h-.1v-.7h.4zm-.2.1v.2H128.2v-.1-.1H127.9z" fill="#fff"/><g id="_Group__1_"><path fill="#7c7c7c" d="M88 22.3h23.2V64H88z"/><path id="_Path__1_" d="M89.4 43.2c0-8.2 3.7-15.8 10.1-20.9-11.5-9.1-28.2-7.1-37.2 4.4-9.1 11.5-7.1 28.2 4.4 37.2 9.6 7.6 23.2 7.6 32.7 0-6.2-4.9-10-12.6-10-20.7z" fill="#494949"/><path class="st7" d="M139.9 59.6v-.8h.3v-.2h-.9v.2h.3v.8h.3zm1.7 0v-1h-.3l-.3.7-.3-.7h-.3v1h.2v-.8l.3.7h.2l.3-.7v.8h.2zM142.4 43.2c0 14.6-11.9 26.5-26.5 26.5-5.9 0-11.7-2-16.3-5.6 11.5-9.1 13.5-25.7 4.4-37.2a30.5 30.5 0 0 0-4.4-4.4c11.5-9.1 28.2-7.1 37.2 4.4 3.7 4.6 5.6 10.3 5.6 16.3z"/></g></g></g></svg>