<svg xmlns="http://www.w3.org/2000/svg" viewBox="0 0 200 100"><style>.st9{fill:#aaa}</style><g id="ALL"><g id="MASTERCARD"><g id="Layer_2"><g id="Layer_1-2"><path d="M72 83.5v-4.4c.1-1.4-1-2.7-2.5-2.8h-.3c-1-.1-2 .4-2.5 1.2-.5-.8-1.4-1.3-2.4-1.2-.8 0-1.7.3-2.1 1v-.9h-1.5v7.1h1.5v-3.9c-.1-.9.5-1.8 1.4-1.9h.3c1 0 1.5.7 1.5 1.9v3.9h1.5v-3.9c-.1-.9.5-1.8 1.4-1.9h.3c1 0 1.5.7 1.5 1.9v3.9H72zm23.2-7.1h-2.6v-2.2h-1.5v2.2h-1.4v1.4h1.4v3.3c0 1.7.6 2.7 2.5 2.7.7 0 1.3-.2 2-.5l-.5-1.3c-.4.2-.9.4-1.3.4-.7 0-1-.5-1-1.2v-3.3h2.6l-.2-1.5zm13.3-.1c-.7 0-1.4.4-1.9 1v-.8h-1.5v7.1h1.5v-4c0-1.1.5-1.9 1.4-1.9.3 0 .6.1.9.2l.5-1.4c-.2-.2-.6-.3-.9-.2zm-20.1.7c-.9-.5-1.9-.8-2.9-.7-1.9 0-3 .8-3 2.3 0 1.1.8 1.9 2.5 2.1l.7.1c.8.1 1.2.3 1.2.7 0 .5-.5.8-1.7.8-.8 0-1.7-.2-2.4-.7l-.7 1.2c.9.6 2 .9 3.1.9 2.1 0 3.3-.9 3.3-2.4 0-1.4-.9-2-2.5-2.2l-.7-.1c-.7-.1-1.2-.2-1.2-.7 0-.5.5-.8 1.3-.8s1.5.2 2.3.6l.7-1.1zm41.6-.7c-.7 0-1.4.4-1.9 1v-.8h-1.5v7.1h1.5v-4c0-1.1.5-1.9 1.4-1.9.3 0 .6.1.9.2l.5-1.4c-.2-.2-.6-.3-.9-.2zM110 80c-.1 2 1.4 3.6 3.5 3.7h.3c.9 0 1.9-.2 2.6-.8l-.7-1.2c-.5.4-1.2.6-1.9.6-1.2-.1-2.2-1.2-2.1-2.5.1-1.1.9-2 2.1-2.1.7 0 1.3.2 1.9.6l.7-1.2c-.7-.6-1.7-.9-2.6-.8-2-.1-3.7 1.4-3.8 3.4v.3zm14.6 0v-3.5H123v.8c-.5-.7-1.3-1-2.3-1-2.1 0-3.7 1.7-3.7 3.7 0 2.1 1.7 3.7 3.7 3.7.8 0 1.8-.3 2.3-1v.8h1.5l.1-3.5zm-5.8 0c.1-1.2 1.1-2.1 2.3-2.1 1.2.1 2.1 1.1 2.1 2.3-.1 1.1-1 2.1-2.2 2.1-1.1 0-2.2-.9-2.2-2.1V80zm-18.7-3.7c-2.1 0-3.7 1.8-3.7 3.8 0 2.1 1.8 3.7 3.8 3.7 1 .1 2.2-.3 3-.9l-.7-1.1c-.6.5-1.3.7-2.1.7-1 .1-2.1-.7-2.2-1.8h5.3v-.6c0-2.4-1.4-3.8-3.4-3.8zm0 1.3c.9 0 1.8.7 1.9 1.8h-3.7c-.2-1.1.8-1.8 1.8-1.8zM139 80v-6.4h-1.4v3.7c-.5-.7-1.3-1-2.3-1-2.1 0-3.7 1.7-3.7 3.7 0 2.1 1.7 3.7 3.7 3.7.8 0 1.8-.3 2.3-1v.8h1.4V80zm2.6 2.5c.1 0 .2 0 .3.1.1 0 .2.1.2.1l.2.2c.1.2.1.4 0 .5 0 .1-.1.2-.2.2-.1.1-.1.1-.2.1s-.2.1-.3.1c-.3 0-.5-.2-.7-.4-.1-.2-.1-.4 0-.5 0-.1.1-.2.2-.2.1-.1.1-.1.2-.1s.2-.1.3-.1zm0 1.3h.2c.1 0 .1-.1.2-.1.2-.2.2-.5 0-.7 0 0-.1-.1-.2-.1h-.4c-.1 0-.1.1-.2.1-.2.2-.2.5 0 .7 0 0 .1.1.2.1h.2zm0-.9c.1 0 .1 0 .2.1 0 0 .1.1.1.2 0 0 0 .1-.1.1 0 0-.1.1-.2.1l.2.2h-.2l-.2-.2h-.1v.2h-.1V83l.4-.1zm-.2.1v.2H141.7v-.1-.1H141.4zm-8.2-3c.1-1.2 1.1-2.1 2.3-2.1 1.1 0 2.1 1.1 2.1 2.3-.1 1.1-1 2.1-2.2 2.1-1.1 0-2.2-.9-2.2-2.1V80zm-52.4 0v-3.6h-1.5v.8c-.5-.7-1.3-1-2.3-1-2.1 0-3.7 1.7-3.7 3.7 0 2.1 1.7 3.7 3.7 3.7.8 0 1.8-.3 2.3-1v.8h1.5V80zM75 80c.1-1.2 1.1-2.1 2.3-2.1 1.2.1 2.1 1.1 2.1 2.3-.1 1.1-1 2.1-2.2 2.1s-2.2-1-2.2-2.1V80z" fill="#fff"/><g id="_Group_"><path fill="#858585" d="M87.9 22h23.5v42.3H87.9z"/><path id="_Path_" d="M89.5 43.2c0-8.3 3.8-16 10.2-21.2-11.7-9.2-28.6-7.1-37.8 4.5s-7.1 28.6 4.5 37.8c9.7 7.6 23.4 7.6 33.2 0-6.4-5-10.2-12.9-10.1-21.1z" fill="#494949"/><path class="st9" d="M143.1 43.2c0 14.9-12.1 26.8-26.8 26.8-6 0-11.9-2.1-16.6-5.8 11.7-9.2 13.7-26.1 4.5-37.8-1.3-1.7-2.9-3.2-4.5-4.5 11.7-9.2 28.6-7.1 37.8 4.5 3.7 4.9 5.6 10.8 5.6 16.8zM140.6 59.8V59h.3v-.2h-.9v.2h.4v.8h.2zm1.7 0v-1h-.3l-.3.7-.3-.7h-.2v1h.2V59l.3.7h.2l.3-.7.1.8z"/></g></g></g></g></g></svg>