<svg xmlns="http://www.w3.org/2000/svg" viewBox="0 0 200 100"><style>.st14{fill:#a6a6a6}</style><g id="ALL"><g id="NETELLER"><path class="st14" d="M154.4 63.5H71.9v-.2l.6-3.3c.4-2 .8-4.1 1.2-6.1.3-1.8.7-3.6 1-5.4.3-1.5.6-3.1.8-4.6.1-.3.1-.6.1-1l-.1-.1H71c-.1 0-.2.1-.3.2-.3 1.5-.5 2.9-.8 4.3-.3 1.5-.6 3.1-.8 4.5-.3 1.7-.6 3.4-1 5.1-.3 1.7-.6 3.5-1 5.2-.1.4-.2.8-.2 1.2H35.5c0-.1-.1-.3-.1-.3-.5-1.5-1-2.9-1.5-4.3-1-2.7-1.9-5.5-2.8-8.2-.4-1.2-.8-2.4-1.2-3.5 0-.1 0-.1-.1-.1-.1.3-.1.7-.2 1-.3 1.6-.6 3.2-.8 4.8-.3 1.8-.6 3.6-1 5.4-.3 1.7-.6 3.3-.9 5 0 .1-.1.3-.1.4H18v-.3c.1 0 .1-.1.1-.1.3-1.5.5-2.9.8-4.4.4-2 .8-4.1 1.2-6.1.4-2.4.9-4.7 1.3-7l1.2-6.6c.1-.7.3-1.4.4-2.1h9.2c0 .1.1.1.1.2.3.8.6 1.7.9 2.5 1.5 4.3 3.1 8.5 4.7 12.8.1.3.1.5.3.8 0-.1.1-.1.1-.2.1-.6.2-1.2.3-1.7.3-1.3.5-2.6.7-4 .3-1.6.6-3.3.9-4.9.3-1.3.5-2.6.7-4l.3-1.5h52.6v.3c-.1.8-.3 1.7-.4 2.5-.2 1-.4 2.1-.6 3.1 0 .1-.1.3-.3.2h-8c-.3 0-.3 0-.3.2-.3 1.3-.5 2.7-.8 4.1-.1.3-.1.3.3.3H91c.1 0 .3 0 .4.1 0 .1-.1.3-.1.4-.3 1.4-.5 2.8-.8 4.2-.1.6.1.5-.6.5h-7.3c-.3 0-.3 0-.3.3-.3 1.3-.4 2.6-.7 4-.1.4-.1.4.3.4h13c.1 0 .2-.1.2-.2.1-.6.2-1.2.3-1.7.3-1.6.6-3.3.9-4.9.3-1.6.6-3.2.9-4.9.3-1.4.5-2.9.8-4.3l.6-3.6c.1-.4.2-.8.2-1.2h8.8c.1.3-.1.4-.1.6l-1.2 6c-.3 1.8-.6 3.6-1 5.4-.4 2.4-.9 4.8-1.3 7.2-.1.3-.1.3.2.3h5.6c.2 0 .2 0 .3-.2.2-1 .3-1.9.5-2.9.3-1.8.7-3.6 1-5.4.3-1.6.6-3.3.9-4.9.4-2 .8-4.1 1.2-6.1h8.8v.3c-.1.8-.3 1.5-.4 2.4-.3 1.3-.4 2.6-.7 3.8-.3 1.4-.5 2.8-.8 4.2-.3 1.4-.5 2.7-.8 4.2-.3 1.5-.6 3-.8 4.5-.1.3 0 .3.2.3h5.7c.2 0 .2 0 .3-.2.1-.3.1-.6.1-.9.3-1.7.6-3.5 1-5.2.3-1.3.4-2.6.7-3.9.3-1.5.5-2.9.8-4.3.3-1.3.5-2.6.7-3.9.1-.4.2-.8.2-1.2h16.9c0 .3-.1.4-.1.7-.3 1.7-.6 3.3-.9 5-.1.4-.1.4-.4.4h-7.6c-.3 0-.3 0-.3.3v.1c-.3 1.3-.5 2.6-.8 4-.1.3-.1.3.3.3H143.4c.2 0 .2 0 .1.2-.2 1.2-.4 2.3-.6 3.5l-.3 1.5c0 .1-.1.2-.2.2h-7.7c-.3 0-.3 0-.3.3-.3 1.2-.4 2.4-.7 3.7-.1.3-.1.4-.1.7.1.1.2.1.3.1h12.8c.3 0 .3 0 .3-.3.2-1 .4-2 .6-3.1l1.2-6.6c.4-2.6 1-5 1.4-7.6.2-1 .4-2 .6-3.1h12.5c-.1.1.1.1.1.1.2 0 .4.1.6.1 1.3.1 2.6.4 3.9.9 1.2.4 2.2 1.1 3.1 2s1.3 2.1 1.5 3.4c.1.6.1 1.2.1 1.7-.1 1.1-.2 2.1-.6 3.1-.4 1-1 1.9-1.8 2.6-1.1 1-2.4 1.6-3.8 1.9-.3.1-.7.1-1 .3 0 .1.1.2.1.3 1 2.6 2 5.2 2.9 7.9l.9 2.4h-8.8c-.2-.6-.4-1.3-.6-1.9-1-3.5-2.1-7.1-3.1-10.6 0-.1 0-.3-.1-.3v.1c-.2.9-.3 1.8-.5 2.7-.3 1.6-.6 3.3-.9 4.9-.3 1.3-.5 2.7-.7 4-.1 0-.2.4-.2.8zM46.1 57.4c.1.1.2 0 .3 0h12.8c.3 0 .3 0 .3-.3.3-1.4.5-2.7.8-4.2.3-1.5.6-3.1.8-4.5.3-1.3.5-2.7.8-4 .1-.4.1-.9.3-1.3.1-.3 0-.3-.2-.3H49.2c-.3 0-.3 0-.3.3-.3 1.3-.4 2.6-.7 4-.1.4-.1.4.3.4h7.6c.1 0 .3 0 .4.1-.1.3-.1.5-.1.7-.3 1.4-.5 2.9-.8 4.3-.1.3-.1.3-.3.3h-7.8c-.3 0-.3 0-.3.3v.1c-.2.9-.3 1.8-.5 2.7-.4.3-.5.8-.6 1.4zM157 49.3c.1.1.1.1.2.1h2.1c.8 0 1.7-.1 2.4-.4 1-.4 1.7-1 2-2 .3-.6.3-1.3.2-2-.1-1-.7-1.7-1.6-2.1-.3-.1-.6-.3-.9-.3-1-.2-2-.2-3-.2-.1 0-.2.1-.2.1-.1.4-.1.8-.2 1.2-.3 1.6-.6 3.3-.9 4.9 0 .1-.1.4-.1.7zM177 63.5s0-.1 0 0c-.1-.1-.2-.1-.3-.1-1.5-.6-2.4-1.7-2.7-3.3-.3-2.2 1.3-4.2 3.4-4.4 1.7-.2 3.5.7 4.2 2.4.1.2.1.3.2.5 0 .1.1.1.1 0v2c-.1.1-.1.1-.1.2-.3 1-.9 1.8-1.8 2.3-.3.2-.6.3-.9.4-.1 0-.1 0-.1.1-.7-.1-1.3-.1-2-.1zm4.2-3.9c.1-1.7-1.3-3.3-3.2-3.3-1.8 0-3.3 1.4-3.3 3.2 0 1.9 1.6 3.3 3.2 3.3 1.9 0 3.4-1.6 3.3-3.2z"/><path class="st14" d="M178.8 59.7c.6.4 1 1.2 1.5 1.8-.3.1-.4.1-.7.1-.1 0-.1-.1-.2-.2-.3-.4-.5-.7-.8-1.1-.3-.4-.7-.6-1.2-.4-.1 0-.3-.1-.3.1-.1.1 0 .2 0 .3 0 .4.1.8.1 1.3 0 .2 0 .3-.3.3s-.3 0-.4-.3c0-.5-.1-1-.1-1.5-.1-.6-.1-1.3-.1-1.9 0-.1-.1-.3 0-.4s.3-.1.4-.1c.6-.1 1.3-.1 1.9-.1 1 0 1.3 1.1 1 1.7-.1.3-.4.4-.6.5 0-.1-.1-.1-.2-.1zm-1.5-.3c.4-.1.7-.1 1.1-.1.1 0 .3-.1.4-.1.3-.1.4-.3.3-.6 0-.3-.2-.5-.5-.6-.1-.1-.3-.1-.5-.1-.3.1-.7.1-1 .1-.2 0-.3 0-.2.3.1.3 0 .6.1.9 0 .2 0 .2.3.2z"/></g></g></svg>