<svg xmlns="http://www.w3.org/2000/svg" viewBox="0 0 200 100"><style>.st24{fill:#5b5b5b}.st25{fill:#6f6f6f}</style><g id="ALL"><g id="PAYSAFECARD"><path class="st24" d="M5.2 46.2c.2-.1.2-.3.2-.5.4-1.9 2-2.6 3.4-2.6 3.4-.1 7-.1 10.4 0 2.2 0 3.5 1.3 3.6 3.5.2 3.2.2 6.4 0 9.6-.1 2.3-1.4 3.5-3.7 3.6-3.4.1-7 .1-10.4 0-1.8 0-2.9-1-3.4-2.6-.1-.2 0-.3-.2-.4.1-3.6.1-7.2.1-10.6z"/><path class="st25" d="M63.7 66v-3.6c0-.6.2-.7.7-.7h7.3c.5 0 1-.1 1.3-.5.3-.4.2-.9.2-1.3-.1-.3-.6-.2-.8-.2-1.6 0-3.2 0-4.7-.1-2.1-.1-3.8-1.7-3.8-3.8V43.4c0-.4.2-.5.6-.5h3c.5 0 .6.2.6.7v10.2c0 1.5.2 1.7 1.7 1.7H72c.9 0 1.3-.5 1.3-1.3V43.7c0-.6.2-.8.7-.7.9.1 1.9 0 2.8 0 .4 0 .6.1.6.6v18.1c0 2.1-.9 3.8-3.1 4.4-3.7-.1-7.1-.1-10.6-.1zM29.9 66v-6-12.2c0-.6 0-1.2.2-1.8.4-2 1.7-3 3.7-3h5.8c2.5 0 3.8 1.4 3.9 3.8.1 3.1.1 6.2 0 9.3 0 1.8-1.6 3.5-3.5 3.6-1.7.1-3.4.1-5.2 0-.6 0-.7.2-.7.7V66h-4.2zm9.4-14.6v-3c0-.8-.2-1.1-1.1-1.1h-2.9c-.9 0-1.3.4-1.3 1.3v5.6c0 .9.4 1.3 1.4 1.3H38c.8 0 1.2-.4 1.2-1.2.1-1 .1-2 .1-2.9zM194.9 56.3c-.2.1-.2.3-.2.5-.5 1.8-1.8 2.8-3.6 2.9-2.1.2-4.3.2-6.4 0-1.9-.2-3.3-1.6-3.4-3.7-.2-3-.2-6.1 0-9.2.2-2.7 1.8-3.9 4.7-3.9h7.2c.6 0 .7-.1.7-.7-.1-1.2 0-2.5 0-3.7 0-1.1 0-1.1 1-1.1v18.9zm-1-6.3v-5.5c0-.3.1-.6-.5-.6-2.5 0-5.2-.1-7.7 0-2.3.1-3.5 1.5-3.5 3.8v7.7c0 2.1.9 3.1 3 3.4 1.7.2 3.4.2 5.1 0 2.4-.2 3.5-1.5 3.5-3.8.1-1.8.1-3.4.1-5zM52.4 43c1.5.1 3.2-.2 5 .2 1.8.3 2.8 1.3 2.9 3.1.2 2.2.1 4.4.1 6.6 0 1.2.1 2.5-.1 3.7-.2 1.9-1.6 3.1-3.4 3.2-2.3.1-4.5.2-6.8 0-1.9-.2-3.1-1.1-3.3-3.1-.2-1.6-.2-3.3 0-4.9.2-2 1.5-3 3.5-3.1 1.7-.1 3.5 0 5.2 0 .2 0 .7.2.7-.3 0-.4-.1-.8-.5-.9-.2-.1-.6-.1-.8-.1h-7.4c-.6 0-.7-.1-.7-.7.1-1 0-2 0-3 0-.5.2-.6.6-.6 1.5-.1 3.1-.1 5-.1zm1.2 12.5h.9c1.7 0 1.8-.1 1.8-1.8 0-.9-.2-1.1-1.1-1.1h-2.3c-1.9 0-2 0-1.9 1.9 0 .7.3 1.1 1.1 1.1.4-.1.9-.1 1.5-.1zM109.7 51.4v4.3c0 2.5-1.5 4-3.9 4.1-2 .1-4 0-6.1-.1-2.3-.1-3.4-1.2-3.6-3.5-.1-1.4-.1-2.9 0-4.3.2-2 1.4-3.3 3.4-3.3 1.8-.1 3.5 0 5.3 0 .2 0 .7.2.7-.3 0-.4-.1-.8-.5-.9-.2-.1-.6-.1-.8-.1h-7.4c-.5 0-.7-.2-.7-.7v-3.1c0-.4.1-.6.5-.6h9.2c2.5.1 3.8 1.5 3.9 4v4.5zm-6.8 1.1h-1c-1.6 0-1.7.1-1.7 1.7 0 .9.3 1.2 1.2 1.2h2.2c1.9 0 2-.2 1.9-2 0-.7-.4-1-1-1.1-.5.2-1.1.2-1.6.2zM122.5 51.4v-4.5c.1-2.3 1.1-3.6 3.3-3.8 2.4-.2 4.7-.2 7 0 2 .2 3.1 1.4 3.2 3.4.1 1.1 0 2.4 0 3.5 0 .4-.3.5-.6.6-2.7 1.1-5.4 2.1-8.1 3.2-.3.2-.8.2-.7.7.2.5.3 1 1.1 1h7.5c.6 0 .7.2.7.7-.1 1 0 2 0 3 0 .4-.1.6-.5.6-3.1-.1-6.2.1-9.3-.1-2-.1-3.4-1.5-3.5-3.4-.1-.8-.1-1.6-.1-2.5v-2.4zm6.9-4.1h-.6c-2 0-2.2.2-2.2 2.2 0 .5.2.5.6.3 1.3-.5 2.7-1 4-1.6.2-.1.7-.1.6-.5-.1-.4-.4-.6-.7-.6-.6.2-1.1.2-1.7.2zM85.4 59.8h-4.3c-.6 0-.7-.2-.7-.7 0-1 .1-1.9 0-2.9 0-.6.2-.7.7-.7h6.5c.9 0 1.2-.3 1.2-1.1-.1-.6-.3-1-1-1h-3.3c-1.9.1-4.4-1.6-4.2-4.2.1-.8 0-1.7 0-2.5 0-2.4 1.1-3.7 3.5-3.8 2.9-.1 5.7 0 8.7-.1.3 0 .4.2.4.4v3.4c0 .5-.2.5-.6.5H85.2c-.6.1-.9.3-.9.9 0 .7.2 1 .9 1h3.4c2.8 0 4.3 1.5 4.3 4.3v2.1c.1 1.5-.7 2.5-1.6 3.5-.5.4-1.1.7-1.6.7-1.3.1-2.8.1-4.3.2 0-.1 0 0 0 0zM120 38.8v1.6c0 .3-.1.4-.4.4h-1.1c-1.1 0-1.7.8-1.4 1.9.1.3.2.2.4.2h2c.3 0 .5.1.5.4v3.4c0 .3-.1.5-.5.5h-1.8c-.6-.1-.7.2-.7.7v11c0 .7-.2.8-.8.8-.9-.1-1.9 0-2.8 0-.4 0-.6-.1-.6-.5V40.5c0-2 1.6-3.6 3.7-3.8 1-.1 2 0 2.9-.1.3 0 .4.2.4.4.2.8.2 1.3.2 1.8z"/><path class="st24" d="M22.3 43c-.7-.4-1.2-.8-2-.9-.3-.1-.3-.5-.3-.7-1.5-4.5-7.1-5.8-10.5-2.5-.7.7-1.2 1.6-1.6 2.5-.1.3-.2.6-.7.7-.7.2-1.1.5-1.7.9-.6-2.3 1-5.8 3.3-7.5 2.8-2 6.5-2.2 9.4-.4 2.9 1.7 4.6 5.1 4.1 7.9z"/><path class="st25" d="M167.8 51.8c0 1.5.1 2.9 0 4.4-.1 1.9-1.5 3.4-3.4 3.5-2.2.2-4.3.2-6.5 0-1.7-.2-3.2-1.5-3.4-3.3-.2-1.6-.2-3.3.1-4.9.3-1.6 1.5-2.7 3.1-2.9 1.3-.2 2.7-.1 4-.1h4.6c.5 0 .7-.2.7-.7v-.9c-.2-1.6-1-3.1-3.4-3.1h-8.5c-.5 0-.6-.2-.6-.7 0-.3.2-.4.4-.4 3 0 6 0 9 .1 2.4.1 3.8 1.5 4 3.8.1 1.9 0 3.5-.1 5.2zm-.9 1.2v-3c0-.4-.1-.6-.5-.6h-7.9c-2 0-3.1 1.2-3.1 3.2v2.9c.1 1.8 1.1 2.9 2.9 3 2 .1 4 .1 6.1 0 1.5-.1 2.3-1 2.5-2.5.1-.9 0-2 0-3zM140.9 51v4.1c0 2.3 1.1 3.5 3.4 3.6 1.9.1 3.8 0 5.7.1.3 0 .7-.1.7.5 0 .5-.2.6-.6.5-2-.1-4.1.1-6.2-.1-2.5-.2-3.9-1.7-4-4.1-.1-3-.1-6 0-9 0-2 1.4-3.4 3.4-3.6 2.3-.2 4.6-.1 6.9-.1.5 0 .4.3.4.6 0 .4-.2.4-.5.4h-5.3c-.5 0-1 0-1.4.1-1.6.2-2.5 1.1-2.5 2.8V51zM172.8 53c0-2-.1-4 0-6.1.2-2.6 1.3-3.8 3.9-4h1.1c.4 0 .6.2.6.5 0 .4-.2.5-.5.5-.5 0-1.1 0-1.6.1-1.5.2-2.3 1.1-2.5 2.6-.2 1.1-.1 2.1-.1 3.2V59c0 .3.1.7-.5.7s-.6-.3-.6-.7c.2-1.9.2-4 .2-6z"/></g></g></svg>