<svg xmlns="http://www.w3.org/2000/svg" viewBox="0 0 200 100"><style/><g id="ALL"><g id="SKRILL"><g id="g2997_1_" transform="matrix(1.38138 0 0 1.38138 -5.532 -5.219)"><g id="g3003_1_" transform="translate(137.09 89.189)"><path id="path3005_1_" d="M-43.8-56c1.7 0 3.2-1.5 3.2-3.1 0-1.7-1.5-3.2-3.2-3.2s-3.1 1.5-3.1 3.2c0 1.6 1.4 3.1 3.1 3.1m-24.3 1.6c-.1.4-1.2 3.3-3.6 6.3V-61l-6.7 1.3v23.5h6.7v-7.3c2 2.9 2.8 7.3 2.8 7.3h8c-.8-3.3-4.3-9.3-4.3-9.3 3.1-3.9 4.4-8.1 4.7-8.8-.1-.1-7.6-.1-7.6-.1zm17.5-.2c-6 .2-9 2.8-9 8.2v10.2h6.5v-8.3c0-3.2.4-4.6 4.2-4.7v-5.3c-.6-.2-1.7-.1-1.7-.1m-39.1 2.8c-.8-.1-2.7-.1-2.7-1.9 0-2 2.8-2 3.8-2 1.8 0 4.1.6 5.7 1 0 0 .9.4 1.7.7h.1V-59.7l-.1-.1c-2-.7-4.2-1.4-8.5-1.4-7.3 0-9.9 4.3-9.9 7.8 0 2.1.9 7.1 9.2 7.6.7.1 2.5.1 2.5 1.9 0 1.5-1.5 2.3-4.1 2.3-2.8 0-5.6-.7-7.3-1.4v5.9c2.5.7 5.3.9 8.6.9 7.1 0 10.3-4 10.3-8 .3-4.2-3.3-7.1-9.3-7.6M-47-36.2h6.5v-18.1H-47v18.1zm18.6-23.6v23.6h6.5V-61l-6.5 1.2zm-9.4 0l6.5-1.2v24.8h-6.5v-23.6z" fill="#666"/></g></g></g></g></svg>