<svg xmlns="http://www.w3.org/2000/svg" viewBox="0 0 200 100"><style>.st26{fill:#949494}.st27{fill:#3d3d3d}</style><g id="ALL"><g id="SOFORT"><path class="st26" d="M125.7 29.1c-1.4-2-3.7-3-6.9-3-2.1 0-4.3.5-6.2 1.4-2.8 1.2-5.3 3.5-7.3 6.4-1.4 2-2.5 4.1-3.4 6.6-1.8 4.6-1.6 8.3 0 10.8 1.1 1.4 3 3 7.1 3 7.5 0 13.1-5 16.7-14.7.9-2.3 2.1-7.3 0-10.5m-8.2 11c-2.3 6.4-4.1 8-6.6 8s-3.4-1.6-1.1-8c1.8-4.8 4.1-7.8 6.7-7.8 2.8 0 3.3 1.6 1 7.8"/><path class="st27" d="M32.7 70.3c-.2.5-.4.9-.7 1.2-.4.4-.5.7-.9 1.1-.4.4-.7.5-1.1.7-.4.2-.9.4-1.2.5-.5.2-1.1.4-1.6.4s-1.1.2-1.6.2h-3.5c-.2 0-.4 0-.5-.2v-.7l4.3-11.9c.2-.4.4-.5.5-.7.2-.2.4-.2.7-.2h3.4c.9 0 1.6 0 2.1.2s.9.4 1.2.7c.4.4.5.7.5 1.1s0 .9-.2 1.6c-.2.4-.4.7-.5.9-.2.2-.4.5-.7.7-.2.2-.5.5-.9.7-.4.2-.7.4-.9.4.4 0 .7.2.9.4.2.2.5.4.5.7.2.4.2.5.2.9.2.4.2.8 0 1.3m-3 0c.2-.4.2-.5.2-.9 0-.2-.2-.5-.2-.7-.2-.2-.4-.4-.7-.4-.4-.2-.7-.2-1.2-.2h-1.6L24.8 72h2.1c.4 0 .7 0 1.1-.2.4 0 .5-.2.9-.4.2-.2.5-.4.7-.5-.1.1.1-.3.1-.6m1.4-5.7c.2-.4.2-.5.2-.7s0-.4-.2-.5c-.2-.2-.4-.2-.5-.4-.2 0-.5-.2-1.1-.2h-1.2L27 66.4h1.6c.4 0 .7 0 1.1-.2.4-.2.5-.2.7-.4 0-.2.2-.4.4-.5.1-.3.3-.5.3-.7"/><path class="st26" d="M150.3 26.7c.5.4 1.1.9 1.4 1.4 1.1 1.4 1.4 3.2 1.1 5h5L150.1 54h7.6l7.6-20.9h9.8l2.5-6.4h-27.3z"/><path class="st26" d="M150 29.3c-1.2-1.8-3.7-2.7-7.8-2.7H133l-10 27.5h8.5l3.5-9.6c.2.4 2.3 9.6 2.3 9.6h8.9s-1.6-6.7-2.8-9.6c-.4-.7-.7-1.4-1.1-2.1 2.5-.9 6.2-3 7.6-7.1 1.1-2.4 1.1-4.6.1-6m-7.5 6c-.9 2.1-2.3 3.5-5.1 3.5H136l2.5-6.6h1.4c2.6.1 3.5.8 2.6 3.1M64.8 26.7H49c-2.5 0-5 0-7.1 1.1-2.1 1.1-4.1 3.4-5.5 7.6-.4.9-.5 1.8-.5 2.5s.2 1.2.4 1.8c.4.7.9 1.2 1.6 1.8.7.5 1.4.9 2.3 1.2 0 0 .5.2 1.1.4.5.2 1.2.4 1.6.5.2 0 .5.2.7.4.2.2.5.4.5.5 0 .2.2.4.2.5 0 .2 0 .4-.2.7-.2.5-.5 1.1-1.1 1.2-.5.2-1.4.4-2.7.4H24.2l-2.5 7.1h17.4c1.6 0 4.6 0 7.5-1.2 2.8-1.2 5.7-3.7 6.7-8.5.4-1.8.4-3.4-.4-4.4-.7-1.2-2-2-3.9-2.5 0 0-.4-.2-.9-.2-.5-.2-1.1-.4-1.4-.4-.5-.2-.9-.4-1.1-.7s-.4-.7-.2-1.2.5-.9.9-1.1c.5-.2 1.1-.4 1.8-.4h10.1c0-.2.2-.2.2-.4 1.8-3.2 3.9-5.3 6.4-6.7"/><path class="st26" d="M80.1 29.1c-1.4-2-3.7-3-6.9-3-2.1 0-4.3.5-6.2 1.4-2.8 1.2-5.3 3.5-7.3 6.4-1.4 2-2.5 4.1-3.4 6.6-1.8 4.6-1.6 8.3 0 10.8 1.1 1.4 3 3 7.1 3 7.5 0 13.1-5 16.7-14.7 1-2.3 2.3-7.3 0-10.5m-8 11c-2.3 6.4-4.1 8-6.6 8s-3.4-1.6-1.1-8c1.8-4.8 4.1-7.8 6.7-7.8 2.6 0 3.3 1.6 1 7.8M110.2 26.7h-16c-4.4 0-7.8 2.3-9.4 6.6l-7.6 20.9h8.3l3.9-10.8h7.5l2.1-5.7h-7.3l1.2-3.4c.2-.5.9-1.1 1.8-1.1h8.7c0-.2.2-.2.2-.4 1.7-2.6 4.2-4.7 6.6-6.1"/><path class="st27" d="M45.8 73.3v.5c0 .2-.2.2-.2.4-.2 0-.2.2-.5.2h-2.2c-.2 0-.2 0-.2-.2V71.3h-5L36.1 74c0 .2-.2.2-.2.2s-.2.2-.4.2h-1.9c-.2 0-.4 0-.4-.2v-.4c0-.2.2-.4.4-.5l8.5-12.1c0-.2.2-.2.2-.4 0 0 .2-.2.4-.2h3c.2 0 .2.2.2.2v12.5zm-2.6-9.9l-3.9 5.7h3.9v-5.7zM60 73.3c0 .2-.2.4-.2.4l-.4.4c-.2 0-.2.2-.4.2h-2.1c-.2 0-.4-.2-.4-.4-.2-.2-.2-.4-.2-.5 0-.2-.2-.5-.2-.9l-.9-6.5c0-.4-.2-.7-.2-1.2v-1.2c-.2.5-.4 1.1-.5 1.6-.2.5-.4 1.1-.5 1.6l-2.7 7.1s0 .2-.2.2l-.1.1c-.2 0-.2 0-.4.2h-1.2c-.2 0-.4 0-.4-.2 0 0-.2 0-.2-.2v-.2l4.4-12.2c.2-.4.4-.5.5-.7.2-.2.5-.2.9-.2H56.7c.2 0 .4.2.4.2.2.2.2.2.2.4s.2.4.2.7l.9 5c0 .4.2.5.2.9s0 .5.2.9c0 .4 0 .5.2.9v.9c.2-.5.4-1.1.5-1.6.2-.5.4-1.1.5-1.6l2.3-6.4s0-.2.2-.2l.2-.2c.2 0 .2 0 .4-.2h1.2c.2 0 .4 0 .4.2l.2.2v.2L60 73.3zM73.7 74s0 .2-.2.2c0 0-.2.2-.4.2s-.4 0-.5.2c-.2.2-.4 0-.7 0H71c-.2 0-.4 0-.4-.2l-.2-.2-1.8-6.4-2.3 6.4s0 .2-.2.2-.2.2-.4.2-.4 0-.5.2h-1.4c-.2 0-.4 0-.4-.2-.2 0-.2 0-.2-.2v-.2L68 61.4s0-.2.2-.2c0 0 .2-.2.4-.2h2.3c.2 0 .2 0 .2.2v.2L69 67.3l6-5.9c0-.2.2-.2.2-.2.2 0 .2-.2.4-.2h1.9c.2 0 .4 0 .4.2.2 0 .2 0 .2.2v.2c0 .2-.2.2-.2.4l-.5.5-5.5 5 1.8 6.2v.3M79.2 74s0 .2-.2.2c0 0-.2.2-.4.2h-2.3c.2-.2.2-.2 0-.2V74L81 61.2s0-.2.2-.2c0 0 .2-.2.4-.2h2.3c.2 0 .2 0 .2.2v.2L79.2 74zM94.6 73.3c0 .2-.2.4-.2.4l-.4.4c-.2 0-.2.2-.4.2h-2.1c-.2 0-.4-.2-.4-.4-.2-.2-.2-.4-.2-.5 0-.2-.2-.5-.2-.9l-.9-6.5c0-.4-.2-.7-.2-1.2v-1.2c-.2.5-.4 1.1-.5 1.6s-.4 1.1-.5 1.6l-2.7 7.1s0 .2-.2.2l-.2.2c-.2 0-.2 0-.4.2h-1.2c-.2 0-.4 0-.4-.2 0 0-.2 0-.2-.2v-.2l4.4-12.2c.2-.4.4-.5.5-.7.2-.2.5-.2.9-.2H91.2c.2 0 .4.2.4.2.2.2.2.2.2.4s.2.4.2.7l.9 5c0 .4.2.5.2.9s0 .5.2.9c0 .4 0 .5.2.9v.9c.2-.5.4-1.1.5-1.6.2-.5.4-1.1.5-1.6l2.3-6.4s0-.2.2-.2l.2-.2c.2 0 .2 0 .4-.2h1.2c.1 0 .4 0 .4.2l.2.2v.2l-4.8 12.2zM113.4 62.8c0 .2-.2.4-.2.5s-.2.2-.2.4l-.2.2h-.2c-.2 0-.2 0-.4-.2s-.4-.2-.7-.4c-.4-.2-.7-.4-1.1-.4-.4-.2-.9-.2-1.6-.2s-1.2.2-2 .4c-.5.2-1.2.5-1.8.9-.5.4-1.1.9-1.4 1.4-.4.5-.7 1.2-1.1 2-.4.7-.4 1.4-.4 2.1 0 .5.2 1.1.4 1.4.2.4.5.7 1.1.9.5.2 1.1.4 1.6.4.4 0 .7 0 .9-.2.4 0 .7-.2.9-.4l1.1-3.2h-2.7c-.2 0-.2 0-.2-.2s0-.4.2-.9c0-.2.2-.4.2-.5s.2-.2.2-.4l.2-.2h5.2l.2.2v.8l-2 5.5c0 .2-.2.4-.4.5-.2.2-.4.4-.5.4-.2.2-.5.2-.9.4s-.7.2-1.1.2c-.4 0-.7.2-1.1.2h-1.1c-1.1 0-2-.2-2.7-.5-.7-.4-1.2-.7-1.8-1.4-.4-.5-.5-1.2-.5-2.1s.2-1.8.5-2.8c.4-1.1.9-2.1 1.6-3 .7-.9 1.4-1.6 2.3-2.3.9-.5 1.8-1.1 2.8-1.4s2-.5 3-.5c.5 0 1.1 0 1.6.2.5 0 .9.2 1.2.4.4.2.5.2.7.4.2.2.4.2.4.4v.4c.2.1 0 .3 0 .6"/></g></g></svg>