<svg xmlns="http://www.w3.org/2000/svg" xmlns:xlink="http://www.w3.org/1999/xlink" viewBox="-0.99644427 -1 643.99644427 348.61762114" width="640" height="344.62"><defs><path d="M86.68.16l2 .2 1.98.28 1.95.36 1.92.43 1.89.5 1.85.58 1.82.65 1.79.71 1.74.78 1.71.85 1.67.91 1.63.97 1.58 1.04 1.54 1.09 1.5 1.14 1.44 1.21 1.4 1.25 1.35 1.31 1.3 1.35 1.24 1.41 1.19 1.45 1.13 1.49 1.08 1.54 1.01 1.58.96 1.62.9 1.66.83 1.69.76 1.73.71 1.76.63 1.79.56 1.83.5 1.85.42 1.87.35 1.9.28 1.92.2 1.95.12 1.96.04 1.98-.04 2-.12 2.01v13.81h21.72l.54.01.53.02.53.03.52.05.53.06.52.07.51.09.51.09.51.12.49.13.49.14.48.15.47.17.46.19.45.2.44.21.42.23.41.25.4.26.38.27.36.29.35.31.33.32.31.33.3.36.27.37.26.38.23.4.21.42.19.44.16.45.14.47.11.48.09.5.06.52.04.54v.55l-.02.57-.06.59-.08.61-16.04 71.34-.09.46-.11.46-.12.45-.14.44-.16.44-.17.42-.18.42-.2.41-.21.4-.23.39-.24.38-.25.37-.27.36-.28.35-.29.34-.3.33-.31.32-.32.3-.34.3-.34.28-.35.27-.37.26-.37.24-.38.23-.39.22-.4.2-.4.19-.41.18-.42.16-.43.15-.43.13-.44.11-.44.1-.45.09-.45.07-.46.05-.46.03-.47.02h-.47l-.47-.01H29.28l-.47.01h-.47l-.47-.02-.46-.03-.46-.05-.45-.07-.45-.09-.44-.1-.44-.11-.43-.13-.43-.15-.42-.16-.41-.18-.4-.19-.4-.2-.39-.22-.38-.23-.37-.24-.36-.26-.36-.27-.34-.28-.34-.3-.32-.3-.31-.32-.3-.33-.29-.34-.28-.35-.27-.36-.25-.37-.24-.38-.23-.39-.21-.4-.2-.41-.18-.42-.17-.42-.16-.44-.14-.44-.12-.45-.11-.46-.09-.46L.23 78.17l-.1-.61-.07-.59-.05-.57-.01-.56.02-.53.05-.52.07-.5.11-.49.12-.47.16-.45.17-.43.21-.42.22-.4.25-.39.26-.37.29-.35.31-.34.32-.32.35-.3.36-.29.37-.28.4-.26.4-.24.43-.23.43-.22.44-.19.46-.19.47-.17.48-.16.48-.14.5-.13.5-.11.51-.1.51-.09.52-.07.52-.06.53-.04.52-.04.53-.01.53-.01h21.28V52.76l-.02-.2-.01-.19-.01-.19-.02-.2-.01-.19-.01-.2-.01-.19-.01-.2-.01-.19-.01-.2-.01-.19v-.2l-.01-.19v-.2l-.01-.19v-.39l-.01-.2v-.78l.01-.19v-.39l.01-.2v-.19l.01-.19v-.2l.01-.19.01-.2.01-.19.01-.2.01-.19.01-.2.01-.19.02-.2.01-.19.01-.2.02-.19.2-2 .28-1.98.36-1.95.43-1.92.5-1.89.58-1.85.65-1.82.71-1.79.79-1.74.84-1.71.91-1.67.98-1.63 1.03-1.58 1.09-1.54 1.14-1.5 1.21-1.44 1.25-1.4 1.31-1.35 1.35-1.3 1.41-1.24 1.45-1.19 1.49-1.13 1.54-1.08 1.58-1.01 1.62-.96 1.66-.9 1.69-.83 1.73-.77 1.76-.7 1.79-.63 1.83-.57 1.85-.49 1.87-.42 1.9-.35 1.92-.28 1.95-.2 1.96-.12L82.67 0l2 .04 2.01.12zm-21.9 86.27h-.34l-.15.01-.16.01h-.15l-.15.02-.14.01-.14.01-.13.02-.12.02-.13.03-.12.02-.11.03-.11.04-.1.03-.1.04-.09.05-.09.05-.08.05-.08.06-.07.06-.07.07-.06.07-.06.08-.05.08-.05.09-.04.09-.04.1-.03.1-.02.12-.02.11-.02.13v.13l-.01.13V96.67l.01.08v.09l.01.08V97l.01.08.01.08.02.07.02.07.02.07.02.06.03.06.03.06.03.06.04.05.04.05.05.05.06.04.05.04.07.04.07.04.08.03.08.03.09.03.09.02.11.02.11.02.12.02.12.01.14.01h9.63l.1.01h.08l.09.01h.08l.07.01.08.01.07.02.07.01.06.02.06.02.06.02.06.02.05.03.05.03.04.03.05.03.04.04.04.04.03.04.04.05.03.05.02.05.03.06.02.06.02.06.02.07.01.07.02.08.01.08v.08l.01.09v34.43l.01.16.01.15.01.15.02.14.02.13.03.12.03.11.04.11.04.1.04.1.06.08.05.08.07.08.07.07.07.06.08.06.09.05.1.05.1.05.11.03.12.04.12.03.13.03.14.02.15.02.15.02.17.01.17.02.18.01h.19l.2.01H87.79l.2-.01h.19l.18-.02.17-.01.16-.02.16-.02.15-.02.15-.03.14-.03.13-.03.12-.04.12-.04.11-.04.11-.05.1-.06.09-.06.09-.06.08-.07.08-.07.06-.07.07-.09.06-.08.05-.1.05-.09.04-.11.04-.11.03-.11.02-.12.03-.13.01-.13.01-.14.01-.15V99.6l.01-.11v-.1l.01-.1.01-.09.01-.08.02-.08.02-.07.02-.07.02-.06.02-.06.03-.06.03-.04.03-.05.04-.04.04-.04.04-.03.04-.03.05-.02.05-.03.05-.02.06-.02.05-.01.07-.01.06-.01.07-.01.07-.01.07-.01h.24l.09-.01h10.39l.14-.02.12-.01.12-.02.11-.02.11-.03.09-.03.09-.03.09-.03.07-.04.07-.05.07-.04.06-.05.05-.05.05-.05.04-.06.04-.06.04-.06.03-.06.02-.06.03-.07.02-.07.01-.07.02-.07.01-.07.01-.07.01-.08V96.91l.01-.08v-.24.14l.27-8.44-.01-.15-.01-.15-.01-.14-.03-.12-.03-.13-.03-.11-.04-.11-.05-.09-.05-.1-.06-.08-.06-.08-.07-.07-.08-.07-.08-.06-.08-.05-.09-.05-.1-.05-.1-.04-.1-.03-.11-.03-.11-.03-.12-.03-.12-.02-.12-.01-.13-.02-.13-.01-.13-.01-.14-.01h-.14l-.15-.01H64.78zm15.69-67.62l-1.34.14-1.33.19-1.3.25-1.28.29-1.27.36-1.24.4-1.21.45-1.19.5-1.17.54-1.14.59-1.11.64-1.08.68-1.05.72-1.01.76-.99.8-.95.84-.92.87-.88.91-.84.95-.8.98-.77 1.01-.72 1.04-.69 1.08-.63 1.1-.6 1.13-.55 1.15-.5 1.18-.46 1.2-.41 1.23-.36 1.24-.3 1.27-.26 1.28-.2 1.31-.15 1.32-.09 1.33-.03 1.35.02 1.36v15.32h62.68V51l.01-.06v-.44l.01-.06V49.7l-.01-.07v-.43l-.01-.06v-.25l-.08-1.36-.14-1.34-.19-1.32-.25-1.31-.3-1.28-.35-1.26-.4-1.24-.45-1.22-.5-1.19-.55-1.17-.59-1.13-.63-1.11-.68-1.08-.72-1.05-.76-1.02-.8-.99-.84-.95-.88-.92-.91-.88-.94-.84-.98-.8-1.02-.77-1.04-.72-1.07-.68-1.1-.64-1.13-.6-1.15-.55-1.18-.5-1.21-.46-1.22-.41-1.25-.35-1.26-.31-1.29-.26-1.3-.2-1.32-.14-1.33-.1-1.35-.03-1.36.02-1.36.08z" id="a"/><path d="M50.34 163.54c-10.6 0-19.19 8.59-19.19 19.19 0 10.6 8.59 19.19 19.19 19.19 10.59 0 19.19-8.59 19.19-19.19 0-10.6-8.6-19.19-19.19-19.19z" id="b"/><path d="M115.68 201.88c-10.6-.03-19.17-8.64-19.15-19.24.03-10.58 8.61-19.14 19.19-19.14 10.58-.03 19.17 8.52 19.19 19.1v.13c-.02 10.6-8.63 19.17-19.23 19.15z" id="c"/><path d="M242.19 88.96c-2.05 0-2.98.45-2.98 2.53v64.23c0 3.47-1.82 4.14-6.4 4.14h-18.3c-5.02 0-6.39-.45-6.39-4.14V91.49c0-2.08-.94-2.53-2.98-2.53h-17.15c-3.68 0-3.68-1.6-3.68-3.42V69.77c0-2.97 2.31-3.46 5.95-3.46h68.63c3.64 0 5.95.49 5.95 3.46v15.77c-.49 2.04-.49 3.42-4.13 3.42h-18.52z" id="d"/><path d="M316.06 91c.88 0 2.97 0 2.97 2.09v14.84c.18 1.46-.85 2.79-2.31 2.97-.22.03-.44.03-.66 0-4.02-.14-8.03.33-11.91 1.38-4.6 1.08-7.72 5.37-7.33 10.08v30.39c0 3.24.22 6.88-4.44 6.88H275.1c-2.93.47-5.68-1.54-6.15-4.47-.07-.49-.08-.99-.02-1.48v-47.62c0-7.99 3.19-14.83 19.23-14.83 5.58-.05 22.32-.18 27.9-.23z" id="e"/><path d="M345.99 160.08c-8.88 0-18.52-4.09-18.52-20.35V98.11c0-3.64 1.38-6.84 5.02-6.84h17.77c3.13-.28 5.89 2.03 6.17 5.16v33.22c0 2.98.94 6.44 5.02 6.44 4.09 0 5.29-3.2 5.29-6.17V98.11c0-3.42 0-6.84 4.44-6.84h17.15c4.79 0 6.17 2.71 6.17 5.91v42.11c0 18.03-10.97 20.57-15.77 20.57-6.55.04-26.19.17-32.74.22z" id="f"/><path d="M406.36 157.59c-1.38-.71-2.49-18.79 1.38-17.77 5.88 1.65 11.97 2.41 18.08 2.27 5.73 0 8.88-.67 8.88-3.42 0-1.82-2.98-2.98-6.88-4.8-8.22-3.64-21.28-8.44-21.28-23.54 0-15.11 17.41-21.5 34.33-21.5 13.33 0 17.37 1.37 19.19 2.04 2.54.93 0 16.93-3.64 16.93-2.31-.23-10.08-1.6-14.21-1.6-4.13 0-6.18.71-6.18 2.97 0 1.16 2.54 2.53 6.18 4.44 8.88 3.87 22.65 10.53 22.65 25.86.05 19.9-17.77 22.21-30.11 22.21-9.62.17-19.21-1.21-28.39-4.09z" id="g"/><path d="M506.39 110.24v27.67c0 2.49 1.83 3.42 4.8 3.42.63.05 1.27-.02 1.87-.22 1.82-.22 3.86 17.37 2.48 18.08-5.09 1.66-10.41 2.5-15.76 2.49-16.93 0-21.5-10.75-21.5-18.53v-33.36h-4.13c-3.2 0-3.87-2.08-3.87-5.28v-8.22c0-3.69 1.16-5.02 4.8-5.02h4.8v-8.88c0-3.2 3.19-4.8 6.17-5.29 1.47-.25 13.19-2.24 14.66-2.49 5.02-.71 5.02.89 5.02 4.45v12.12h7.99c3.2 0 4.13 2.98 4.13 6.18v7.37c-.13 3.69-.13 5.51-3.55 5.51h-7.91z" id="h"/><path d="M533.05 159.86c-4.45 0-5.02-.45-5.02-4.45V68.62c.02-2.04 1.68-3.67 3.72-3.65H550.24c5.46 0 5.9 1.6 5.9 4.45v84.39c-.22 3.51 0 6.05-4.79 6.05h-18.3z" id="i"/><path d="M603.27 180.2c-.86 2.68-3.16 4.64-5.95 5.06h-14.39c-4.44 0-5.29-1.64-3.91-4.44l9.6-22.65c-15.09-37.48-23.47-58.29-25.15-62.46-1.15-2.97 0-4.44 3.91-4.44h20.79c2.79.42 5.09 2.38 5.95 5.06.61 1.74 3.66 10.43 9.15 26.08 6.32-15.65 9.83-24.34 10.53-26.08.85-2.68 3.16-4.65 5.95-5.06h15.77c4.44 0 5.24 1.6 3.87 4.44-7.23 16.9-28.89 67.59-36.12 84.49z" id="j"/><path d="M4.45 258.38c-.13-1.39.89-2.63 2.28-2.76.18-.02.35-.01.52 0h1.78c1.47-.05 2.7 1.11 2.75 2.58v63.52c.05 1.45-1.08 2.66-2.53 2.71h-2c-1.39.15-2.64-.85-2.79-2.24-.02-.16-.02-.31-.01-.47v-63.34z" id="k"/><path d="M69.04 291.83v30.07c-.07 1.45-1.3 2.58-2.76 2.53h-1.6c-1.46.18-2.79-.86-2.96-2.32-.01-.03-.01-.05-.01-.08v-28.6c0-9.78-.31-13.64-8.89-13.64-9.77 0-17.32 3.37-17.32 13.32v28.79c-.11 1.44-1.38 2.52-2.82 2.4H31.1c-1.47.1-2.74-1.01-2.84-2.48v-.05-45.36c.04-1.44 1.25-2.58 2.7-2.54.05 0 .09.01.14.01h1.69c1.49-.1 2.79 1.03 2.89 2.52v2.19c4.72-4.3 11-6.45 17.37-5.95 12.39 0 15.99 6.3 15.99 19.19z" id="l"/><path d="M77.79 315.59c2.13-2.26 2.8-3.2 4.88-1.6 3.54 3.07 8.12 4.66 12.8 4.44 4.97 0 9.19-2.08 9.19-7.24-.06-2.97-1.77-5.66-4.44-6.97-.21-.09-1.24-.52-3.11-1.29-2.48-.96-3.86-1.49-4.13-1.6-7.46-2.93-9.68-4.13-12.44-7.99-1.33-2.12-2.01-4.57-1.95-7.07 0-8.88 7.15-13.32 16.92-13.32 4.99-.19 9.89 1.43 13.77 4.57 1.11.93 1.27 2.58.34 3.69-.02.03-.05.06-.07.09-.67.74-1.04 1.16-1.11 1.24-1.34 1.02-2.36 1.6-3.87 0-2.71-2.09-6.08-3.16-9.5-3.02-5.64 0-9.29 1.78-9.29 6.98 0 4.44 3.96 5.41 10.89 8.44 8.88 3.46 15.23 7.99 15.23 16.65.23 5.32-2.95 10.2-7.9 12.13-2.71 1.23-5.66 1.82-8.62 1.73-6.36.31-12.59-1.91-17.33-6.17-1.08-.95-1.2-2.6-.26-3.69z" id="m"/><path d="M130.82 306.22c0 9.59 1.6 11.64 10.44 12.61 1.96 0 2.89.94 2.89 2.8v1.02c0 1.91-.75 2.67-2.71 2.67-12.97 0-17.77-5.38-17.77-17.77v-25.76h-3.73c-1.86 0-2.53-1.02-2.53-2.62v-1.34c0-1.55.67-2.62 2.53-2.62h3.69v-10.26c.05-1.36 1.17-2.44 2.53-2.44h2.27c1.31.09 2.35 1.13 2.44 2.44v9.91h9.86c1.69 0 2.44.93 2.44 2.62v1.33c0 1.51-.66 2.62-2.44 2.62h-9.91v24.79z" id="n"/><path d="M172.52 272.64l.24.01h.23l.23.01.24.01.23.01.23.02.24.01.23.02.23.02.23.02.23.02.24.02.23.03.23.03.23.02.23.04.23.03.23.03.23.04.23.04.23.04.23.04.23.04.23.04.23.05.23.05.22.05.23.05.23.05.22.06.23.05.23.06.22.06.23.06.22.07.23.06.22.07.16.06.16.06.16.06.16.06.15.07.16.07.15.07.16.07.15.08.15.07.15.08.15.08.15.08.15.08.14.09.15.09.14.08.14.1.15.09.14.09.14.1.13.1.14.1.14.1.13.1.13.1.14.11.13.11.13.11.12.11.13.11.12.12.13.11.12.12.12.12.12.12.12.13.11.12.12.13.11.13.22.28.21.29.2.3.2.29.19.3.19.31.18.3.18.31.17.32.16.31.16.32.16.32.14.32.15.33.13.32.13.33.12.33.12.34.11.33.11.34.1.34.09.34.09.35.08.34.08.35.07.34.06.35.06.35.05.35.04.36.04.35.03.35.03.36.01.35.02.36V290.35l-.02.36-.02.36v24.17l.01.06v.18l.01.06v.07l.01.06v.12l.01.06.01.06v.07l.01.06v.06l.01.06.01.06.01.06v.06l.01.07.01.06.01.06.01.06.01.06.01.06.01.06.01.06.01.06.01.06.02.07.01.06.01.06.01.06.02.06.01.06.01.06.02.06.01.06.02.06.01.06.02.06v.16l.01.08v.07l.01.08.01.08.01.08.01.07.02.08.01.08.02.07.01.08.02.07.02.07.02.08.02.07.02.08.02.07.02.07.03.07.02.08.02.07.03.07.02.07.03.07.02.07.03.08.02.07.03.07.02.07.03.07.02.07.03.07.02.07.03.07.02.07.02.07.02.07.02.07.02.07.03.05.03.05.02.06.02.05.02.05.02.05.02.06.02.05.01.06.01.05.02.06.01.05.01.06.01.05v.06l.01.05.01.06V321.87l-.01.05-.01.06v.05l-.01.06-.01.05-.01.06-.02.05-.01.06-.01.05-.02.06-.02.05-.02.06-.02.05-.02.05-.02.05-.03.06-.03.05-.07.08-.08.09-.08.08-.08.08-.09.08-.08.07-.09.07-.09.07-.09.07-.09.07-.09.06-.09.06-.1.06-.1.06-.09.05-.1.06-.1.05-.1.04-.11.05-.1.04-.11.04-.1.04-.11.03-.1.04-.11.03-.11.02-.11.03-.11.02-.11.02-.11.02-.12.01-.11.01-.11.01-.11.01H188.03l-.12-.01h-.11l-.12-.01h-.03l-.04-.01H187.5l-.04-.01h-.07l-.03-.01h-.04l-.04-.01-.03-.01h-.04l-.03-.01-.04-.01h-.03l-.04-.01-.03-.01-.04-.01-.03-.01-.04-.01-.03-.01-.04-.01-.03-.02-.04-.01-.03-.01-.03-.01-.04-.02-.03-.01-.03-.02-.04-.01-.03-.02-.03-.01-.03-.02-.04-.01-.03-.02-.03-.02-.03-.02-.03-.02-.03-.01-.04-.03-.03-.03-.03-.03-.03-.03-.03-.03-.03-.02-.03-.03-.03-.03-.03-.03-.03-.03-.03-.03-.03-.03-.03-.03-.03-.03-.02-.04-.03-.03-.03-.03-.03-.03-.02-.03-.03-.03-.03-.04-.02-.03-.03-.03-.03-.04-.02-.03-.03-.03-.02-.04-.03-.03-.02-.03-.02-.04-.03-.03-.02-.04-.03-.03-.02-.04-.02-.03-.02-.04-.03-.03-.02-.04-.02-.04-.02-.03-.04-.11-.04-.11-.04-.11-.04-.11-.04-.11-.04-.11-.04-.11-.04-.11-.04-.11-.04-.11-.04-.11-.03-.11-.04-.11-.04-.11-.04-.11-.03-.11-.04-.11-.04-.11-.03-.11-.04-.12-.03-.11-.04-.11-.03-.11-.04-.11-.03-.11-.04-.11-.03-.11-.03-.12-.04-.11-.03-.11-.03-.11-.03-.11-.04-.12-.03-.11-.03-.11-.03-.11-.03-.12-.03-.11-.03-.11-.03-.11-.29.36-.3.35-.31.34-.31.34-.32.33-.33.32-.33.31-.34.3-.35.29-.35.28-.36.28-.37.26-.37.26-.38.24-.39.24-.39.23-.39.22-.4.21-.4.19-.41.19-.41.18-.42.17-.42.16-.43.15-.43.14-.43.13-.44.12-.43.11-.45.09-.44.09-.45.08-.45.06-.45.06-.45.04-.46.03-.46.02-.46.01h-.46l-.46-.01-.46-.02h-.82l-.81-.02-.79-.04-.78-.06-.75-.08-.74-.11-.73-.12-.7-.14-.69-.17-.66-.18-.65-.21-.63-.22-.61-.24-.6-.26-.57-.28-.55-.3-.53-.31-.52-.34-.49-.35-.47-.36-.45-.39-.43-.4-.41-.42-.39-.44-.36-.45-.35-.47-.32-.49-.3-.5-.27-.51-.26-.53-.23-.55-.2-.56-.19-.57-.16-.59-.13-.6-.12-.62-.08-.63-.07-.65-.03-.65-.02-.67-.06-.55-.05-.54-.02-.54v-.53l.03-.53.04-.53.06-.52.08-.52.11-.51.12-.51.14-.49.16-.49.18-.49.2-.47.22-.47.23-.45.25-.45.26-.43.29-.43.29-.41.32-.41.33-.39.34-.38.36-.36.37-.35.39-.34.4-.32.41-.31.43-.29.43-.28.45-.26.46-.24.48-.22.48-.21.49-.19.51-.17.51-.15.52-.13.54-.11.54-.09.5-.09.5-.09.5-.08.5-.08.5-.08.5-.08.51-.07.5-.07.5-.07.51-.07.5-.06.5-.06.51-.06.5-.06.51-.05.5-.06.51-.04.5-.05.51-.04.5-.05.51-.03.5-.04.51-.03.51-.04.5-.02.51-.03.51-.02.51-.03.5-.01.51-.02.51-.01.51-.01.5-.01.51-.01H180.49l.51.01.51.01h1.86v-3.02l.02-.23.02-.22.01-.23v-.23l.01-.22v-.23l-.01-.23-.01-.22-.01-.23-.01-.22-.02-.23-.03-.22-.02-.22-.03-.23-.03-.22-.04-.22-.04-.22-.05-.22-.04-.22-.05-.22-.06-.22-.06-.22-.06-.21-.06-.22-.07-.21-.08-.21-.07-.22-.08-.21-.08-.21-.09-.2-.09-.21-.09-.21-.1-.2-.1-.2-.1-.21-.11-.2-.11-.19-.11-.2-.11-.2-.12-.19-.21-.16-.2-.17-.21-.15-.21-.16-.21-.14-.22-.15-.22-.14-.22-.13-.23-.13-.22-.12-.23-.12-.23-.12-.23-.11-.24-.1-.24-.1-.24-.09-.24-.09-.24-.09-.24-.08-.25-.08-.24-.07-.25-.06-.25-.06-.25-.06-.26-.05-.25-.04-.25-.04-.26-.03-.25-.03-.26-.03-.26-.01-.26-.02-.25-.01h-.52l-.26.01-.26.02-.26.01-.26.03-.26.03h-1.07l-.33.02-.33.02-.34.03-.33.02-.33.03-.33.04-.33.03-.34.03-.33.04-.33.04-.33.04-.33.05-.33.04-.33.05-.33.05-.32.05-.33.06-.33.05-.33.06-.33.06-.32.06-.33.07-.33.06-.32.07-.33.07-.32.08-.33.07-.32.08-.32.07-.33.09-.32.08-.32.08-.32.09-.32.09-.32.09-.32.09-.32.1-.32.09-.32.1-.32.1-.14.04-.14.02h-.15l-.15-.02-.14-.04-.15-.06-.15-.07-.15-.09-.14-.1-.15-.11-.14-.13-.14-.14-.14-.15-.14-.16-.13-.17-.13-.18-.12-.19-.12-.19-.11-.2-.11-.2-.1-.21-.1-.21-.09-.21-.08-.21-.07-.22-.06-.21-.06-.21-.05-.21-.03-.2-.03-.2-.02-.2v-.19l.01-.18.02-.18.03-.16.04-.16.06-.15.07-.13.08-.13.1-.11.19-.17.22-.17.23-.17.27-.17.28-.16.31-.15.33-.16.34-.14.37-.15.38-.14.4-.14.41-.13.43-.13.44-.13.45-.12.47-.11.47-.12.48-.1.5-.11.49-.1.51-.09.51-.09.51-.09.52-.08.51-.08.52-.07.52-.07.52-.06.51-.06.52-.05.5-.05.51-.05.49-.04.49-.03.48-.03.47-.02.46-.02.45-.01.44-.01H172.52zm4.3 28.46l-1.19.03-1.19.05-1.19.07-1.2.08-1.18.1-1.19.11-1.19.12-1.19.14-1.18.16-1.18.17-1.31.25-1.15.29-1 .32-.87.37-.73.41-.62.46-.51.53-.4.58-.32.66-.24.73-.17.81-.11.89-.06.98-.02 1.07.05 1.09.16 1.02.26.95.37.88.47.81.58.72.69.65.8.57.91.49 1.03.4 1.13.32 1.24.22 1.37.14 1.47.05 1.19-.05 1.18-.13 1.15-.22 1.13-.31 1.1-.38 1.07-.46 1.02-.54.99-.61.94-.68.89-.75.84-.82.77-.88.72-.94.65-1 .2-.38.2-.37.18-.38.17-.38.16-.38.15-.39.13-.39.12-.39.11-.4.1-.39.08-.4.07-.41.06-.4.04-.41v-4.44h-1.77l-1.2-.03-1.19-.01-1.19.01-1.2.02z" id="o"/><path d="M245.43 291.83v30.07c-.07 1.44-1.27 2.56-2.71 2.53h-1.6c-1.49.18-2.84-.88-3.02-2.36v-.04-28.6c0-9.78-.27-13.64-8.89-13.64-9.77 0-17.27 3.37-17.27 13.32v28.79c-.14 1.46-1.44 2.54-2.91 2.4h-1.71c-1.47.07-2.73-1.06-2.8-2.53v-45.36c.02-1.42 1.19-2.56 2.61-2.54.06 0 .12.01.19.01H209c1.51-.1 2.82 1.03 2.94 2.53v2.18c4.74-4.35 11.09-6.51 17.5-5.95 12.43 0 15.99 6.3 15.99 19.19z" id="p"/><path d="M267.06 306.22c0 9.59 1.6 11.64 10.44 12.61 2 0 2.93.94 2.93 2.8v1.02c0 1.91-.75 2.67-2.71 2.67-13.01 0-17.77-5.38-17.77-17.77v-25.76h-3.64c-1.86 0-2.53-1.02-2.53-2.62v-1.34c0-1.55.67-2.62 2.53-2.62h3.64v-10.26c.07-1.35 1.18-2.42 2.54-2.44h2.26c1.32.07 2.38 1.12 2.44 2.44v9.91h9.91c1.69 0 2.44.93 2.44 2.62v1.33c0 1.51-.66 2.62-2.44 2.62h-10.04v24.79z" id="q"/><path d="M337.1 255.53l.44.02.43.03.43.03.44.04.43.05.43.06.42.06.43.08.43.08.42.08.42.1.42.1.42.11.42.11.41.13.42.13.41.14.4.14.41.16.4.16.4.16.4.18.39.18.39.19.39.2.39.2.38.21.37.22.38.22.37.23.37.24.36.24.36.26.26.25.26.25.25.27.24.26.24.27.23.28.22.28.22.29.21.29.2.29.2.3.19.3.19.3.17.31.17.31.17.32.16.32.14.32.15.33.13.33.13.33.12.33.12.34.1.34.1.34.09.34.09.35.08.35.07.35.06.35.05.35.05.36.04.35.03.36.02.36.02.36.01.36v.36l-.01.36-.02.37v.42l-.01.43-.02.42-.03.43-.03.42-.05.42-.06.41-.07.42-.07.41-.09.41-.09.41-.1.41-.11.4-.12.4-.13.4-.14.39-.14.39-.16.39-.16.38-.17.38-.18.38-.19.37-.2.37-.2.36-.21.36-.22.36-.23.35-.24.34-.24.34-.25.34-.26.33-.27.32-.27.32-.28.31-.29.31-.3.3-.3.3-.31.29-.32.28-.33.28.48.25.47.27.46.29.44.29.44.31.43.32.41.33.41.34.39.36.38.36.37.38.35.38.35.4.33.4.32.42.31.42.29.43.28.44.27.44.26.46.24.46.23.47.21.47.2.49.19.48.17.5.16.5.15.5.12.51.12.51.1.52.08.52.07.53.05.52.04.54.02.53v.54l-.01.53-.03.54-.04.55-.01.95-.04.93-.06.9-.09.88-.12.85-.14.83-.16.81-.19.77-.22.76-.24.73-.27.7-.3.68-.32.66-.34.63-.38.61-.39.58-.43.56-.45.53-.48.51-.51.49-.53.46-.56.43-.58.42-.62.38-.64.37-.66.34-.7.32-.72.29-.75.27-.78.25-.8.22-.83.2-.86.17-.89.15-.91.13-.95.11-.97.08-1 .06-1.02.03-1.06.01-21.54.18h-.22l-.11-.01-.11-.01-.11-.02-.1-.02-.11-.02-.1-.03-.1-.03-.1-.04-.1-.04-.1-.04-.09-.05-.09-.05-.09-.05-.09-.06-.08-.06-.08-.06-.08-.07-.08-.07-.08-.07-.07-.08-.07-.08-.06-.08-.07-.08-.06-.09-.05-.08-.06-.09-.04-.1-.05-.09-.04-.1-.04-.1-.04-.1-.03-.1-.03-.11-.02-.1-.02-.11-.01-.11-.01-.11-.01-.11V258.38l-.01-.11V257.97l.01-.1.02-.1.01-.1.02-.1.03-.1.03-.09.03-.1.03-.09.04-.09.04-.09.05-.08.05-.09.05-.08.05-.08.06-.08.06-.07.06-.08.07-.07.07-.07.07-.06.07-.07.08-.06.08-.06.08-.05.09-.05.08-.05.09-.04.09-.05.09-.03.09-.04.1-.03.1-.03.1-.02.1-.02.1-.02.1-.01h.06l.01-.01H315.67l.03.01h18.35l.43-.03.44-.03.44-.02.43-.01.44-.01h.44l.43.01zm-16.78 61.93l16.52-.05.96-.01.94-.03.91-.06.88-.09.85-.11.83-.14.79-.17.76-.21.72-.24.69-.27.66-.31.61-.35.58-.4.54-.43.5-.48.46-.52.41-.57.37-.62.33-.66.27-.72.1-.29.09-.28.09-.28.09-.29.07-.28.08-.29.07-.29.06-.29.06-.29.05-.29.05-.29.04-.3.04-.29.04-.29.03-.3.02-.3.02-.29.01-.3.01-.3v-.29l-.03-1.3-.1-1.24-.16-1.16-.24-1.1-.29-1.03-.36-.97-.43-.9-.49-.83-.56-.77-.62-.7-.69-.63-.75-.57-.81-.5-.87-.43-.94-.37-1-.3-1.06-.23-1.13-.17-1.19-.1-1.25-.03h-17.63v25.59zm.18-32.56l14.66-.14 1.23-.03 1.19-.12 1.14-.19 1.1-.26 1.05-.33.99-.41.93-.48.86-.55.81-.62.73-.69.66-.75.58-.82.51-.89.41-.96.34-1.01.24-1.09.15-1.14.05-1.21-.04-1.19-.13-1.12-.21-1.04-.29-.97-.38-.89-.47-.81-.56-.75-.64-.67-.74-.6-.82-.54-.92-.46-1.02-.4-1.1-.34-1.2-.27-1.3-.21-1.4-.15-1.49-.08-1.6-.03H320.5v22.21z" id="r"/><path d="M387.87 272.64l.24.01h.23l.23.01.23.01.24.01.23.02.23.01.24.02.23.02.23.02.23.02.23.02.23.03.24.03.23.02.23.04.23.03.23.03.23.04.23.04.23.04.23.04.23.04.23.04.22.05.23.05.23.05.23.05.22.05.23.06.23.05.22.06.23.06.22.06.23.07.22.06.23.07.16.06.16.06.15.06.16.06.16.07.15.07.16.07.15.07.16.08.15.07.15.08.15.08.15.08.14.08.15.09.14.09.15.08.14.1.14.09.14.09.14.1.14.1.14.1.13.1.14.1.13.1.13.11.13.11.13.11.13.11.13.11.12.12.13.11.12.12.12.12.12.12.11.13.12.12.12.13.11.13.21.28.21.29.21.3.2.29.19.3.19.31.18.3.18.31.17.32.16.31.16.32.15.32.15.32.14.33.14.32.13.33.12.33.12.34.11.33.11.34.1.34.09.34.09.35.08.34.07.35.07.34.07.35.05.35.05.35.05.36.04.35.03.35.02.36.02.35.01.36.01.36v.36l-.01.35-.01.36-.02.36v24.23l.01.06v.18l.01.07v.06l.01.06v.06l.01.06v.06l.01.07v.06l.01.06.01.06.01.06v.06l.01.06.01.07.01.06.01.06.01.06.01.06.01.06.01.06.01.06.01.06.01.06.01.07.02.06.01.06.01.06.01.06.02.06.01.06.02.06.01.06.02.06.01.06.02.06v.24l.01.07.01.08.01.08.01.08.01.07.01.08.02.08.01.07.02.08.02.07.02.07.02.08.02.07.02.08.02.07.02.07.02.07.03.08.02.07.03.07.02.07.03.07.02.07.03.08.02.07.03.07.02.07.03.07.02.07.02.07.03.07.02.07.03.07.02.07.02.07.02.07.02.07.03.05.02.05.03.06.02.05.02.05.02.05.02.06.01.05.02.06.01.05.01.06.02.05.01.06v.05l.01.06.01.05v.06l.01.06v.22l-.01.06v.05l-.01.06-.01.05v.06l-.01.05-.02.06-.01.05-.01.06-.02.05-.01.06-.02.05-.02.06-.02.05-.02.05-.03.05-.02.06-.03.05-.07.08-.08.09-.08.08-.08.08-.09.08-.08.07-.09.07-.09.07-.09.07-.09.07-.09.06-.1.06-.09.06-.1.06-.1.05-.1.06-.1.05-.1.04-.1.05-.1.04-.11.04-.1.04-.11.03-.11.04-.11.03-.1.02-.11.03-.11.02-.11.02-.12.02-.11.01-.11.01-.11.01-.12.01H403.37l-.11-.01h-.12l-.11-.01h-.04l-.03-.01h-.11l-.04-.01h-.07l-.04-.01h-.03l-.04-.01-.03-.01h-.04l-.04-.01-.03-.01h-.04l-.03-.01-.04-.01-.03-.01-.04-.01-.03-.01-.04-.01-.03-.01-.03-.02-.04-.01-.03-.01-.04-.01-.03-.02-.03-.01-.04-.02-.03-.01-.03-.02-.03-.01-.04-.02-.03-.01-.03-.02-.03-.02-.04-.02-.03-.02-.03-.01-.03-.03-.03-.03-.03-.03-.03-.03-.03-.03-.03-.02-.03-.03-.03-.03-.03-.03-.03-.03-.03-.03-.03-.03-.03-.03-.03-.03-.03-.04-.02-.03-.03-.03-.03-.03-.03-.03-.02-.03-.03-.04-.03-.03-.02-.03-.03-.04-.02-.03-.03-.03-.02-.04-.03-.03-.02-.03-.03-.04-.02-.03-.02-.04-.03-.03-.02-.04-.02-.03-.03-.04-.02-.03-.02-.04-.02-.04-.02-.03-.05-.11-.04-.11-.04-.11-.04-.11-.04-.11-.04-.11-.04-.11-.04-.11-.03-.11-.04-.11-.04-.11-.04-.11-.04-.11-.03-.11-.04-.11-.03-.11-.04-.11-.04-.11-.03-.11-.04-.11-.03-.11-.03-.11-.04-.11-.03-.12-.03-.11-.04-.11-.03-.11-.03-.11-.03-.11-.03-.12-.03-.11-.03-.11-.03-.11-.03-.12-.03-.11-.03-.11-.03-.11-.03-.12-.02-.11-.03-.11-.29.36-.3.35-.31.34-.31.34-.33.32-.33.32-.33.31-.35.3-.34.29-.36.28-.36.28-.37.26-.37.26-.38.24-.39.24-.39.23-.39.22-.4.21-.41.19-.41.19-.41.18-.42.17-.42.16-.43.15-.43.14-.43.13-.44.12-.44.11-.44.09-.45.09-.44.08-.45.06-.46.06-.45.04-.46.04-.46.02-.46.01h-.46l-.46-.01-.46-.02h-.83l-.8-.02-.8-.04-.77-.06-.76-.08-.74-.11-.72-.12-.7-.14-.69-.17-.67-.18-.65-.21-.63-.22-.61-.24-.59-.26-.57-.28-.55-.3-.54-.31-.51-.34-.49-.35-.47-.36-.46-.39-.43-.4-.4-.42-.39-.44-.37-.45-.34-.47-.32-.49-.3-.5-.28-.51-.25-.53-.23-.55-.21-.56-.18-.57-.16-.59-.14-.6-.11-.62-.09-.63-.06-.65-.04-.65-.01-.67-.06-.55-.05-.54-.02-.54v-.53l.02-.53.04-.53.07-.52.08-.52.1-.51.13-.51.14-.49.16-.49.18-.49.2-.47.21-.47.23-.45.25-.45.27-.43.28-.43.3-.41.31-.41.33-.39.35-.38.36-.36.37-.35.38-.34.4-.32.42-.31.42-.29.44-.28.45-.26.46-.24.47-.22.49-.21.49-.19.5-.17.52-.15.52-.13.53-.11.54-.09.5-.09.5-.09.51-.08.5-.08.5-.08.5-.08.5-.07.51-.07.5-.07.5-.07.51-.06.5-.06.5-.06.51-.06.5-.05.51-.06.5-.04.51-.05.5-.04.51-.05.51-.03.5-.04.51-.03.5-.04.51-.02.51-.03.51-.02.5-.03.51-.01.51-.02.5-.01.51-.01.51-.01.51-.01H395.84l.51.01.5.01h1.87v-3.02l.02-.23.01-.22.01-.23.01-.23v-.67l-.01-.23-.01-.22-.02-.23-.02-.22-.02-.23-.03-.22-.02-.22-.04-.22-.03-.22-.04-.23-.05-.22-.04-.21-.05-.22-.06-.22-.05-.22-.06-.21-.07-.22-.06-.21-.07-.22-.08-.21-.08-.21-.08-.21-.08-.21-.09-.2-.09-.21-.09-.21-.1-.2-.1-.2-.1-.2-.11-.2-.11-.2-.12-.19-.11-.2-.21-.16-.2-.17-.21-.15-.22-.15-.21-.15-.22-.14-.22-.14-.22-.14-.23-.12-.22-.13-.23-.12-.24-.11-.23-.11-.24-.1-.23-.1-.24-.1-.25-.09-.24-.08-.24-.08-.25-.08-.25-.07-.25-.06-.25-.06-.25-.06-.25-.05-.26-.04-.25-.04-.26-.04-.26-.03-.25-.02-.26-.02-.26-.01-.26-.01-.26-.01-.26.01h-.26l-.26.02-.26.02-.27.02-.26.03h-1.06l-.34.02-.33.02-.33.03-.33.02-.33.03-.34.04-.33.03-.33.03-.33.04-.33.04-.33.04-.33.05-.33.04-.33.05-.33.05-.33.05-.33.06-.32.05-.33.06-.33.06-.33.06-.32.07-.33.06-.32.07-.33.07-.32.08-.33.07-.32.08-.33.07-.32.09-.32.08-.32.08-.33.09-.32.09-.32.09-.32.09-.32.1-.32.09-.31.1-.32.1-.14.04-.15.02h-.14l-.15-.02-.15-.04-.14-.06-.15-.07-.15-.09-.15-.1-.14-.11-.14-.13-.15-.14-.13-.15-.14-.16-.13-.17-.13-.18-.12-.19-.12-.19-.12-.2-.1-.2-.11-.21-.09-.21-.09-.21-.08-.21-.07-.22-.07-.21-.05-.21-.05-.21-.04-.2-.02-.2-.02-.2v-.37l.02-.18.03-.16.05-.16.05-.15.07-.13.09-.13.1-.11.19-.17.21-.17.24-.17.26-.17.29-.16.31-.15.32-.16.35-.14.37-.15.38-.14.4-.14.41-.13.43-.13.44-.13.45-.12.46-.11.48-.12.48-.1.49-.11.5-.1.5-.09.51-.09.52-.09.51-.08.52-.08.52-.07.52-.07.52-.06.51-.06.51-.05.51-.05.5-.05.5-.04.49-.03.48-.03.47-.02.46-.02.45-.01.44-.01h1.12zm4.3 28.46l-1.19.03-1.2.05-1.19.07-1.19.08-1.19.1-1.19.11-1.18.12-1.19.14-1.18.16-1.18.17-1.31.25-1.15.29-1 .32-.87.37-.73.41-.62.46-.51.53-.41.58-.32.66-.24.73-.17.81-.11.89-.05.98-.02 1.07.05 1.09.16 1.02.26.95.37.88.47.81.58.72.69.65.8.57.91.49 1.02.4 1.14.32 1.24.22 1.36.14 1.48.05 1.19-.05 1.17-.13 1.16-.22 1.13-.31 1.1-.38 1.06-.46 1.03-.54.99-.61.94-.68.89-.75.83-.82.78-.88.72-.94.64-1 .21-.38.2-.37.18-.38.17-.38.16-.38.15-.39.13-.39.12-.39.11-.4.1-.39.08-.4.07-.41.06-.4.04-.41v-4.44h-1.78l-1.19-.03-1.19-.01-1.2.01-1.19.02z" id="s"/><path d="M460.77 291.83v30.07c-.07 1.44-1.27 2.56-2.7 2.53h-1.6c-1.49.18-2.84-.88-3.02-2.36v-.04-28.6c0-9.78-.27-13.64-8.89-13.64-9.77 0-17.28 3.37-17.28 13.32v28.79c-.14 1.46-1.44 2.54-2.9 2.4h-1.5c-1.47.07-2.72-1.06-2.79-2.53v-45.36c.02-1.42 1.18-2.56 2.61-2.54.06 0 .12.01.18.01h1.69c1.51-.1 2.82 1.03 2.93 2.53v2.18c4.69-4.29 10.95-6.45 17.28-5.95 12.44 0 15.99 6.3 15.99 19.19z" id="t"/><path d="M494.18 295.02c12.02 15.46 18.7 24.05 20.03 25.77.86.8.91 2.15.11 3.01-.52.55-1.28.79-2.02.63h-2.31c-1.16.05-2.27-.5-2.93-1.47-1.2-1.54-7.21-9.29-18.03-23.23l-6.49 7.69v14.21c.1 1.45-.99 2.7-2.43 2.8-.11.01-.22.01-.32 0h-1.87c-1.44.12-2.71-.94-2.83-2.39-.01-.1-.02-.21-.01-.32v-64.41c-.08-1.42 1-2.64 2.42-2.72.14-.01.28 0 .42.01h1.82c1.45-.07 2.68 1.04 2.75 2.48.01.08.01.16.01.23v40.42c12.18-13.59 18.94-21.14 20.3-22.65.77-.81 1.85-1.24 2.97-1.2 3.2 0 4.8 0 4.8 1.96-.04.58-.25 1.14-.62 1.59-2.1 2.35-7.36 8.21-15.77 17.59z" id="u"/><path d="M529.61 255.94l.55.4.43.53.29.62.12.71v4.84l-.02.69-.19.64-.34.56-.48.46-.58.32-.68.17h-.07l-.08.01h-.23l-.08-.01h-1.87l-.61.05-.59-.11-.54-.24-.47-.36-.37-.46-.26-.56-.03-.19-.01-.2-.01-.19.01-.19.01-.2.03-.19v-4.66l.09-.84.25-.69.42-.53.56-.39.7-.23.82-.08h1.87l.71.08.65.24z" id="v"/><path d="M585.77 291.83v30.07c-.07 1.45-1.3 2.58-2.75 2.53h-1.6c-1.46.18-2.79-.86-2.97-2.32 0-.03 0-.05-.01-.08v-28.6c0-9.78-.31-13.64-8.66-13.64-9.77 0-17.28 3.37-17.28 13.32v28.79c-.14 1.46-1.44 2.54-2.9 2.4h-1.72c-1.47.1-2.74-1.01-2.84-2.48v-.05-45.36c.04-1.44 1.25-2.58 2.7-2.54.05 0 .09.01.14.01h1.69c1.51-.1 2.81 1.03 2.93 2.53v2.18c4.69-4.29 10.95-6.45 17.28-5.95 12.39 0 15.99 6.3 15.99 19.19z" id="w"/><path d="M617.98 272.48l.39.03.4.03.39.04.39.05.39.06.39.06.39.08.38.08.39.1.37.1.38.11.38.12.37.12.37.14.36.14.36.15.36.16.36.17.35.17.35.19.34.19.34.2.33.2.33.22.33.22.32.23.32.23.31.25.3.25.31.26.29.27.29.27.29.28.27.29.28.29v-.99l.01-.19v-.18l.01-.17.01-.17.01-.17.02-.16.01-.16.03-.15.02-.15.03-.14.03-.14.04-.13.04-.13.04-.12.05-.12.06-.11.06-.1.07-.11.07-.09.08-.09.09-.09.09-.07.1-.08.11-.07.12-.06.12-.05.13-.05.14-.05.15-.04.16-.03.17-.03.18-.02.18-.02.2-.01h2.21l.11.01.1.02.1.01.1.02.1.03.1.03.09.03.09.04.1.04.09.04.08.05.09.04.08.06.09.05.08.06.07.06.08.07.07.07.07.07.07.07.06.07.06.08.06.08.06.09.05.08.05.09.04.09.04.09.04.09.04.1.03.09.03.1.02.1.02.1.02.11.01.1.01.11v47.49l.04.45.03.45.02.45.01.45v.44l-.01.45-.02.45-.03.44-.05.44-.05.44-.06.44-.07.44-.08.43-.09.44-.11.43-.11.42-.12.43-.13.42-.14.42-.15.41-.16.41-.16.41-.18.4-.19.4-.19.4-.21.39-.21.39-.23.38-.23.38-.24.37-.25.37-.26.36-.26.35-.28.35-.28.35-.29.34-.31.33-.31.33-.31.32-.33.31-.35.26-.36.25-.36.24-.37.24-.37.23-.37.23-.37.22-.38.21-.39.2-.38.2-.39.19-.39.18-.4.17-.4.17-.4.16-.4.15-.41.15-.41.14-.41.13-.41.13-.42.11-.41.11-.42.11-.42.09-.43.09-.42.08-.43.07-.42.06-.43.06-.43.05-.43.04-.44.04-.43.02-.43.02-.44.01-.43.01-.44-.01-.44-.01-.43-.02-.44-.03-.09.01h-.08l-.09.01H614.66l-.09.01h-.26l-.09.01h-.34l-.09.01H612.92l-.08-.01h-.35l-.09-.01h-.26l-.08-.01h-.18l-.08-.01h-.09l-.09-.01h-.32l-.1-.01h-.1l-.1-.01-.1-.01-.09-.01-.09-.01-.09-.01-.09-.01-.09-.01-.08-.02-.08-.01-.09-.02-.08-.01-.08-.02-.08-.02-.09-.02-.08-.01-.08-.02-.08-.02-.08-.02-.09-.03-.08-.02-.09-.02-.08-.02-.09-.02-.09-.03-.09-.02-.09-.02-.1-.03-.1-.02-.1-.02-.1-.03-.1-.02-.11-.02-.11-.03-.12-.02-.12-.02-.2-.05-.2-.04-.2-.05-.2-.05-.2-.05-.2-.05-.2-.05-.2-.05-.2-.06-.19-.06-.2-.06-.2-.06-.19-.06-.2-.07-.19-.06-.2-.07-.19-.07-.2-.07-.19-.07-.19-.07-.19-.08-.19-.08-.19-.08-.19-.08-.19-.08-.19-.08-.19-.09-.18-.08-.19-.09-.18-.09-.19-.09-.18-.09-.19-.1-.18-.09-.18-.1-.18-.1-.18-.1-.18-.1-.18-.11-.18-.1-.05-.05-.06-.05-.06-.05-.05-.05-.05-.05-.05-.06-.05-.05-.04-.06-.05-.06-.04-.06-.04-.06-.04-.06-.03-.06-.04-.07-.03-.06-.03-.06-.03-.07-.03-.07-.02-.06-.02-.07-.03-.07-.01-.07-.02-.07-.02-.07-.01-.07-.01-.07-.01-.08-.01-.07V338.8l.01-.07.01-.08.01-.07.01-.07.01-.08.02-.07.02-.07.04-.16.04-.15.04-.15.05-.15.05-.15.05-.14.06-.15.05-.14.06-.13.07-.14.06-.13.07-.13.07-.12.07-.13.07-.11.08-.12.07-.11.08-.11.09-.11.08-.1.08-.09.09-.1.09-.09.09-.08.09-.08.09-.08.1-.07.09-.07.1-.06.1-.06.1-.05.1-.04.1-.05.1-.03.1-.03.11-.03.1-.02.11-.02h.1l.11-.01.06.01.06.01.06.01.05.01.06.01.06.01.06.02.06.01.06.01.06.02.06.01.05.01.06.02.06.02.06.01.05.02.06.02.06.01.06.02.05.02.06.02.06.02.05.02.06.02.06.02.05.02.06.03.05.02.06.02.05.02.06.03.05.02.06.03.05.02.06.03.05.03.05.02.06.03.05.03.05.03.49.2.5.19.52.18.53.17.54.16.55.15.56.14.57.13.58.12.58.11.59.1.6.09.6.08.61.06.61.06.61.04.61.04.61.02h1.21l.61-.02.6-.02.6-.05.59-.05.58-.07.58-.08.57-.09.56-.11.55-.12.53-.13.53-.15.51-.16.5-.18.49-.19.47-.21.45-.22.43-.24.42-.25.4-.26.37-.29.2-.2.19-.22.19-.21.18-.22.17-.22.17-.23.17-.23.16-.23.15-.24.15-.24.14-.24.14-.25.13-.24.13-.26.12-.25.12-.25.11-.26.1-.26.1-.26.09-.27.08-.27.08-.26.08-.27.07-.27.06-.28.05-.27.05-.28.05-.28.04-.27.03-.28.02-.28.02-.29.02-.28V325.3l-.02-.28-.02-.29-.02-.28-.03-.29v-4.44l-.08.1-.08.09-.08.09-.09.09-.08.09-.08.1-.09.09-.08.09-.08.08-.09.09-.09.09-.08.09-.09.09-.09.08-.08.09-.09.08-.09.09-.09.08-.09.08-.09.09-.1.08-.09.08-.09.08-.09.08-.1.08-.09.08-.1.08-.09.08-.1.07-.09.08-.1.08-.1.07-.1.08-.09.07-.1.07-.1.07-.1.08-.1.07-.1.07-.1.07-.24.13-.24.13-.23.12-.24.12-.25.12-.24.11-.24.11-.25.11-.24.1-.25.1-.25.1-.25.1-.25.09-.26.08-.25.08-.25.08-.26.08-.26.07-.25.07-.26.07-.26.06-.26.06-.26.05-.26.06-.27.04-.26.05-.26.04-.27.04-.26.03-.27.03-.26.03-.27.02-.27.02-.27.01-.26.02h-.27l-.27.01h-.54l-.27-.01-1.11-.02-1.08-.06-1.05-.1-1.02-.13-.98-.17-.96-.22-.92-.24-.89-.29-.86-.32-.83-.36-.8-.39-.77-.43-.74-.46-.71-.49-.68-.53-.65-.57-.63-.59-.59-.63-.56-.66-.54-.7-.51-.72-.48-.76-.45-.78-.43-.82-.39-.84-.37-.88-.35-.9-.31-.94-.29-.96-.27-.99-.23-1.01-.21-1.05-.19-1.07-.16-1.09-.14-1.12-.11-1.15-.08-1.17-.06-1.2-.04-1.22-.01-1.24.01-1.14.04-1.12.05-1.11.09-1.08.1-1.06.13-1.04.16-1.02.18-1 .2-.97.23-.95.26-.93.28-.91.31-.88.33-.85.36-.83.39-.8.42-.78.44-.75.47-.72.5-.69.52-.67.56-.63.58-.61.61-.57.65-.55.67-.51.7-.48.73-.45.76-.41.79-.39.83-.34.85-.32.89-.28.91-.24.95-.21.99-.17 1.01-.13 1.05-.1 1.07-.06 1.12-.02.4-.02.4-.01.4-.01.4.01.4.01zm-4.77 7.65l-1.25.21-1.15.28-1.07.37-.98.44-.9.52-.82.6-.74.68-.67.75-.6.83-.53.9-.46.97-.41 1.05-.35 1.11-.29 1.19-.24 1.25-.18 1.33-.15 1.39-.09 1.46-.06 1.53-.02 1.59-.05.73-.03.74-.02.73.01.73.03.74.05.73.06.72.09.73.11.72.12.72.15.71.16.71.19.71.2.7.22.7.25.69.26.68.28.68.29.67.32.66.33.65.36.65.38.42.39.41.42.38.42.36.44.35.45.32.47.31.48.28.49.26.5.24.51.22.51.2.53.17.53.15.54.13.55.11.55.08.56.06.56.04.56.01.56-.02.57-.04v.18l1.16-.03 1.11-.08 1.06-.15 1.02-.22.97-.28.92-.36.87-.43.81-.52.77-.59.71-.69.67-.77.6-.87.56-.96.49-1.07.45-1.17.38-1.28.33-1.4.27-1.51.21-1.62.15-1.75.1-1.88.03-2-.02-1.61-.07-1.55-.11-1.49-.16-1.41-.22-1.36-.26-1.28-.32-1.22-.38-1.14-.44-1.08-.5-1-.57-.93-.64-.85-.7-.78-.78-.7-.85-.63-.93-.54-1.01-.46-1.09-.39-1.17-.3-1.26-.21-1.34-.13-1.44-.04-1.44.04-1.33.12z" id="x"/><path d="M530.96 293.25v28.79c-.14 1.46-1.44 2.54-2.91 2.4h-1.71c-1.47.1-2.74-1.01-2.84-2.48-.01-.02-.01-.04-.01-.06v-45.35c.05-1.45 1.26-2.58 2.7-2.54.05 0 .1 0 .15.01h1.68c1.51-.1 2.82 1.03 2.94 2.53v16.7z" id="y"/></defs><use xlink:href="#a" fill="#979797"/><use xlink:href="#a" fill-opacity="0" stroke="#000" stroke-opacity="0"/><use xlink:href="#b" fill="#979797"/><use xlink:href="#b" fill-opacity="0" stroke="#000" stroke-opacity="0"/><use xlink:href="#c" fill="#979797"/><use xlink:href="#c" fill-opacity="0" stroke="#000" stroke-opacity="0"/><use xlink:href="#d" fill="#666"/><use xlink:href="#d" fill-opacity="0" stroke="#000" stroke-opacity="0"/><use xlink:href="#e" fill="#666"/><use xlink:href="#e" fill-opacity="0" stroke="#000" stroke-opacity="0"/><use xlink:href="#f" fill="#666"/><use xlink:href="#f" fill-opacity="0" stroke="#000" stroke-opacity="0"/><use xlink:href="#g" fill="#666"/><use xlink:href="#g" fill-opacity="0" stroke="#000" stroke-opacity="0"/><use xlink:href="#h" fill="#666"/><use xlink:href="#h" fill-opacity="0" stroke="#000" stroke-opacity="0"/><use xlink:href="#i" fill="#666"/><use xlink:href="#i" fill-opacity="0" stroke="#000" stroke-opacity="0"/><use xlink:href="#j" fill="#666"/><use xlink:href="#j" fill-opacity="0" stroke="#000" stroke-opacity="0"/><use xlink:href="#k" fill="#666"/><use xlink:href="#k" fill-opacity="0" stroke="#000" stroke-opacity="0"/><use xlink:href="#l" fill="#666"/><use xlink:href="#l" fill-opacity="0" stroke="#000" stroke-opacity="0"/><use xlink:href="#m" fill="#666"/><use xlink:href="#m" fill-opacity="0" stroke="#000" stroke-opacity="0"/><g><use xlink:href="#n" fill="#666"/><use xlink:href="#n" fill-opacity="0" stroke="#000" stroke-opacity="0"/></g><g><use xlink:href="#o" fill="#666"/><use xlink:href="#o" fill-opacity="0" stroke="#000" stroke-opacity="0"/></g><g><use xlink:href="#p" fill="#666"/><use xlink:href="#p" fill-opacity="0" stroke="#000" stroke-opacity="0"/></g><g><use xlink:href="#q" fill="#666"/><use xlink:href="#q" fill-opacity="0" stroke="#000" stroke-opacity="0"/></g><g><use xlink:href="#r" fill="#666"/><use xlink:href="#r" fill-opacity="0" stroke="#000" stroke-opacity="0"/></g><g><use xlink:href="#s" fill="#666"/><use xlink:href="#s" fill-opacity="0" stroke="#000" stroke-opacity="0"/></g><g><use xlink:href="#t" fill="#666"/><use xlink:href="#t" fill-opacity="0" stroke="#000" stroke-opacity="0"/></g><g><use xlink:href="#u" fill="#666"/><use xlink:href="#u" fill-opacity="0" stroke="#000" stroke-opacity="0"/></g><g><use xlink:href="#v" fill="#666"/><use xlink:href="#v" fill-opacity="0" stroke="#000" stroke-opacity="0"/></g><g><use xlink:href="#w" fill="#666"/><use xlink:href="#w" fill-opacity="0" stroke="#000" stroke-opacity="0"/></g><g><use xlink:href="#x" fill="#666"/><use xlink:href="#x" fill-opacity="0" stroke="#000" stroke-opacity="0"/></g><g><use xlink:href="#y" fill="#666"/><use xlink:href="#y" fill-opacity="0" stroke="#000" stroke-opacity="0"/></g></svg>