<svg xmlns="http://www.w3.org/2000/svg" viewBox="0 0 200 100"><style>.st2{fill:#666}</style><g id="ALL"><g id="VISA"><g id="Layer_1_2_" sodipodi:docname="Visa_2006.svg" inkscape:version="0.91 r13725" xmlns:svg="http://www.w3.org/2000/svg" xmlns:rdf="http://www.w3.org/1999/02/22-rdf-syntax-ns#" xmlns:inkscape="http://www.inkscape.org/namespaces/inkscape" xmlns:cc="http://creativecommons.org/ns#" xmlns:sodipodi="http://sodipodi.sourceforge.net/DTD/sodipodi-0.dtd" xmlns:dc="http://purl.org/dc/elements/1.1/"><g id="g4158_2_" transform="matrix(4.42996 0 0 4.42996 -81.166 -105.048)"><path id="polygon9_2_" class="st2" d="M39.4 39.1h-2.1l1.3-8.1h2.1z"/><path id="path11_2_" inkscape:connector-curvature="0" class="st2" d="M47 31.2c-.4-.2-1.1-.3-1.9-.3-2.1 0-3.5 1.1-3.5 2.7 0 1.2 1 1.8 1.8 2.2.8.4 1.1.6 1.1 1 0 .5-.6.8-1.3.8-.8 0-1.3-.1-2-.4l-.2-.3-.3 1.8c.5.2 1.4.4 2.3.4 2.2 0 3.6-1.1 3.6-2.8 0-.9-.5-1.6-1.8-2.2-.7-.4-1.2-.6-1.2-1 0-.3.4-.7 1.2-.7.7 0 1.2.2 1.6.3l.2.1.4-1.6z"/><path id="path13_2_" inkscape:connector-curvature="0" class="st2" d="M49.7 36.2c.2-.5.8-2.3.8-2.3s.2-.5.3-.8l.2.7s.4 1.9.5 2.3c-.3.1-1.3.1-1.8.1zm2.6-5.2h-1.6c-.5 0-.9.2-1.1.7l-3.1 7.4h2.2s.4-1 .4-1.2h2.7c.1.3.3 1.2.3 1.2H54L52.3 31z"/><path id="path15_2_" inkscape:connector-curvature="0" class="st2" d="M35.5 31l-2 5.5-.2-1.1c-.4-1.3-1.6-2.7-2.9-3.4l1.9 7.1h2.2l3.3-8.1h-2.3z"/><path id="path17_2_" inkscape:connector-curvature="0" d="M31.6 31h-3.4v.2c2.6.7 4.4 2.3 5.1 4.2l-.7-3.7c-.2-.6-.6-.7-1-.7z" fill="#b0b0b0"/></g></g></g></g></svg>